<svg xmlns="http://www.w3.org/2000/svg" xmlns:xlink="http://www.w3.org/1999/xlink" xmlns:lucid="lucid" width="2300" height="640"><g transform="translate(-2941.115993141552 -2391.4468024967227)" lucid:page-tab-id="0_0"><path d="M-23500-12000h44500v27000h-44500z" fill="#fff"/><path d="M2941.12 2397.45a6 6 0 0 1 6-6h2288a6 6 0 0 1 6 6v628a6 6 0 0 1-6 6h-2288a6 6 0 0 1-6-6z" fill="#fff"/><path d="M4517.66 2505.22c111.1 0 201.18 90.08 201.18 201.18 0 111.1-90.07 201.18-201.18 201.18H3524.7c-111.1 0-201.17-90.07-201.17-201.18 0-111.1 90.07-201.18 201.18-201.18z" stroke="#fcce14" stroke-width="5" fill="#fff3d9"/><path d="M3486.76 2558.38a6 6 0 0 1 6-6h304.37a6 6 0 0 1 6 6v289.3a6 6 0 0 1-6 6h-304.37a6 6 0 0 1-6-6z" stroke="#6f7681" fill="#f2f2ff"/><path d="M3710.26 2673.55h-7.7v-32.17h-115.2v32.17h-7.72v-39.87h130.62v39.87zM3710.26 2814.2h-130.62v-101.05h7.7v93.37h115.2v-93.37h7.72v101.05z" stroke="#fff" stroke-opacity="0"/><path d="M3597.95 2655.3h94v7.7h-94v-7.7zM3598.4 2676.9h93.54v7.67h-93.53v-7.68zM3597.95 2698.5h94v7.7h-94v-7.7zM3597.95 2720.1h94v7.68h-94v-7.68zM3597.95 2741.72h94v7.68h-94v-7.68zM3597.95 2763.3h94v7.7h-94v-7.7zM3597.95 2784.93h94v7.68h-94v-7.67zM3569.04 2713.38c-.62 0-1.15-.12-1.7-.44-1.33-.64-2.16-1.93-2.16-3.4v-32.4c0-2.14 1.74-3.86 3.86-3.86.88 0 1.6.24 2.32.76l21.7 16.2c1 .76 1.54 1.85 1.54 3.1 0 1.23-.53 2.32-1.53 3.08l-21.7 16.2c-.72.52-1.45.76-2.33.76zm3.85-28.6v17.1l11.55-8.55zM3720.86 2713.38c-.88 0-1.62-.24-2.33-.77l-21.7-16.2c-1-.76-1.53-1.8-1.53-3.1 0-1.24.53-2.28 1.53-3.04l21.7-16.26c1.7-1.28 4.12-.92 5.42.77.53.72.76 1.44.76 2.32v32.38c0 1.53-.8 2.77-2.13 3.46-.56.28-1.1.44-1.7.44zm-15.4-20.07l11.55 8.56v-17.06z" stroke="#fff" stroke-opacity="0"/><path d="M3582.9 2637.46h123.47v173.22H3582.9v-173.22z" stroke="#fff" stroke-opacity="0" stroke-width=".34" fill="#fff" fill-opacity="0"/><path d="M4239.24 2558.38a6 6 0 0 1 6-6h304.37a6 6 0 0 1 6 6v289.3a6 6 0 0 1-6 6h-304.36a6 6 0 0 1-6-6z" stroke="#979ea8" fill="#d7faf5"/><path d="M4303.53 2581.53a6 6 0 0 1 6-6h166.04a6 6 0 0 1 6 6v33.16a6 6 0 0 1-6 6h-166.04a6 6 0 0 1-6-6z" fill="none"/><use xlink:href="#a" transform="matrix(1,0,0,1,4308.532237762486,2580.535210226706) translate(37.825737847222214 27.48676215277778)"/><path d="M4377.5 2663.7h26.73v-4.05h-26.73v4.04zm0 28.53h26.73v-4.04h-26.73v4.03zm0-14.27h34.96v-4.04h-34.96v4.04zm-10.27 34.74V2631h37v18.42c0 1.16.92 2.06 2.04 2.06h18.56v61.22h-57.6zm41.15-78.72l13.5 13.37h-13.5v-13.37zm19.94 14l-20.6-20.38c-.33-.45-.86-.63-1.45-.63h-39.04c-2.43 0-4.14 1.7-4.14 4.04v81.7c0 2.24 1.76 4.04 4.13 4.04h57.6c2.3 0 4.08-1.8 4.08-4.04v-63.28c0-.54-.18-1.08-.58-1.44z" stroke="#000" stroke-opacity="0"/><path d="M4281.46 2774.22a6 6 0 0 1 6-6h217.1a6 6 0 0 1 5.98 6v45.03a6 6 0 0 1-6 6h-217.08a6 6 0 0 1-6-6z" stroke="#000" stroke-width="3" fill="#fff"/><use xlink:href="#b" transform="matrix(1,0,0,1,4286.456248816742,2773.2226002481275) translate(7.9833984375 28.640625)"/><use xlink:href="#c" transform="matrix(1,0,0,1,4286.456248816742,2773.2226002481275) translate(91.9970703125 28.640625)"/><use xlink:href="#d" transform="matrix(1,0,0,1,4286.456248816742,2773.2226002481275) translate(164.0087890625 28.640625)"/><path d="M4396 2718.74v29" stroke="#000" stroke-width="4" stroke-linejoin="round" fill="none"/><path d="M4397.98 2718.8h-3.95v-2.06h3.95z" stroke="#000" stroke-width=".05"/><path d="M4396 2762.72l-7.5-13h15z" stroke="#000" stroke-width="4"/><path d="M3863 2558.38a6 6 0 0 1 6-6h304.37a6 6 0 0 1 6 6v289.3a6 6 0 0 1-6 6H3869a6 6 0 0 1-6-6z" stroke="#6f7681" fill="#fff0fb"/><path d="M4063.77 2665.92l-7.3-7.4-3.63 3.6 6.6 6.6v65.13h-61.24v-5.15h-5.1v7.6c0 1.46 1.2 2.58 2.6 2.58h66.33c1.4 0 2.52-1.12 2.52-2.57v-68.6c0-.66-.26-1.33-.78-1.78zm-19.6 52.6v-63.57h-20.47c-1.4 0-2.5-1.12-2.5-2.57V2632h-38.26v86.5h61.23zm-17.87-68.6h14.22l-14.22-14.22v14.22zm20.38 73.74h-66.34c-1.4 0-2.52-1.23-2.52-2.57v-91.55c0-1.46 1.13-2.58 2.52-2.58h43.36c.7 0 1.4.23 1.82.8l22.98 22.82c.44.43.78 1.1.78 1.78v68.7c0 1.35-1.2 2.58-2.6 2.58zm-53.6-55.95v-5.14h25.6v5.15h-25.6zm0 30.45v-5.04h25.6v5.05h-25.6zm0-15.22v-5.04h35.74v5.03h-35.74zM3934.68 2804.8h16.75v-2.53h-16.75v2.53zm0 17.9h16.75v-2.54h-16.75v2.53zm0-8.95h21.9v-2.53h-21.9v2.53zm-6.44 21.77v-51.2h23.2v11.53c0 .73.57 1.3 1.27 1.3h11.65v38.37h-36.1zm25.8-49.35l8.45 8.4h-8.47v-8.4zm12.5 8.78l-12.92-12.77c-.2-.28-.54-.4-.9-.4h-24.48c-1.52 0-2.6 1.07-2.6 2.54v51.2c0 1.4 1.12 2.54 2.6 2.54h36.1c1.45 0 2.57-1.13 2.57-2.54v-39.67c0-.34-.12-.67-.36-.9z" stroke="#000" stroke-opacity="0"/><path d="M4019.88 2739.63l-58.43 33.46" stroke="#000" stroke-width="3" fill="none"/><path d="M4020.58 2740.93l-1.17-2.05h4.75z" stroke="#000" stroke-width=".05"/><path d="M3948.88 2780.3l7.54-12.97 7.46 13.02z" stroke="#000" stroke-width="3"/><path d="M4009.7 2804.8h16.76v-2.53h-16.75v2.53zm0 17.9h16.76v-2.54h-16.75v2.54zm0-8.95h21.92v-2.53h-21.9v2.53zm-6.43 21.78v-51.2h23.2v11.53c0 .73.57 1.3 1.27 1.3h11.64v38.37h-36.1zm25.8-49.35l8.45 8.38h-8.46v-8.38zm12.5 8.77l-12.92-12.77c-.2-.28-.54-.4-.9-.4h-24.48c-1.53 0-2.6 1.08-2.6 2.54v51.2c0 1.4 1.1 2.54 2.6 2.54h36.1c1.45 0 2.56-1.13 2.56-2.53v-39.68c0-.33-.12-.67-.37-.9zM4084.5 2804.8h16.75v-2.53h-16.75v2.53zm0 17.9h16.75v-2.54h-16.75v2.54zm0-8.95h21.9v-2.53h-21.9v2.53zm-6.44 21.78v-51.2h23.2v11.53c0 .73.57 1.3 1.27 1.3h11.64v38.37h-36.1zm25.8-49.35l8.45 8.38h-8.45v-8.38zm12.5 8.77l-12.92-12.77c-.2-.28-.54-.4-.9-.4h-24.48c-1.53 0-2.6 1.08-2.6 2.54v51.2c0 1.4 1.12 2.54 2.6 2.54h36.1c1.45 0 2.57-1.13 2.57-2.53v-39.68c0-.33-.13-.67-.37-.9z" stroke="#000" stroke-opacity="0"/><path d="M4021.25 2764.3l-.06-23.92" stroke="#000" stroke-width="3" fill="none"/><path d="M4021.3 2778.8l-7.54-12.98 15-.04z" stroke="#000" stroke-width="3"/><path d="M4022.66 2740.42h-2.95v-1.54h2.96z" stroke="#000" stroke-width=".05"/><path d="M4080.92 2773.1l-58.43-33.47" stroke="#000" stroke-width="3" fill="none"/><path d="M4093.5 2780.3l-15 .05 7.45-13.02z" stroke="#000" stroke-width="3"/><path d="M4021.8 2740.93l-3.58-2.05h4.74z" stroke="#000" stroke-width=".05"/><path d="M3872.27 2564.4a6 6 0 0 1 6-6h286.06a6 6 0 0 1 6 6v67.44a6 6 0 0 1-6 6h-286.06a6 6 0 0 1-6-6z" fill="none"/><use xlink:href="#e" transform="matrix(1,0,0,1,3877.2739741330865,2563.3864706694894) translate(97.82573784722221 44.48676215277778)"/><path d="M3574.6 2587.8a6 6 0 0 1 6-6h128.7a6 6 0 0 1 6 6V2621a6 6 0 0 1-6 6h-128.7a6 6 0 0 1-6-6z" fill="none"/><use xlink:href="#f" transform="matrix(1,0,0,1,3579.598571060446,2586.815106578879) translate(18.825737847222214 27.48676215277778)"/><path d="M3839.76 2703.04h-34.13" stroke="#6f7681" stroke-width="4" fill="none"/><path d="M3856.03 2703.04l-14.27 4.63v-9.27z" stroke="#6f7681" stroke-width="4" fill="#6f7681"/><path d="M3805.7 2705h-2.07v-3.94h2.05z" stroke="#6f7681" stroke-width=".05" fill="#6f7681"/><path d="M4213.88 2703.04h-31.5" stroke="#6f7681" stroke-width="5" fill="none"/><path d="M4230.65 2703.04l-14.27 4.63v-9.27z" stroke="#6f7681" stroke-width="5" fill="#6f7681"/><path d="M4182.44 2705.5h-2.57v-4.94h2.57z" stroke="#6f7681" stroke-width=".05" fill="#6f7681"/><path d="M3112.08 2730.42h74.78v-10.12h-74.78v10.12zm0-30.58h92.4v-10.12h-92.4v10.12zm0-30.58h39.57v-10.12h-39.57v10.12zm-60.98 90.42h3.8v10.12h-8.7c-2.9 0-5.08-2.2-5.08-5.06v-174.9c0-2.86 2.17-5.06 5.08-5.06h83.5v9.9h-78.6v165zm26.5 17.6h8.16v9.9h-13.25c-2.7 0-5.07-2.2-5.07-4.84v-175.12c0-2.64 2.36-4.84 5.1-4.84h79.12v9.9h-74.05v165zm26.32 17.6v-165h64.6v38.72c0 2.64 2.37 4.84 5.1 4.84h39v121.44h-108.7zm74.77-157.96l26.67 26.62h-26.68v-26.62zm42.46 28.16l-43.92-43.78c-1.1-1.1-2.36-1.54-3.63-1.54h-74.77c-2.72 0-4.9 2.2-4.9 5.06v174.9c0 2.86 2.18 5.06 4.9 5.06h118.7c2.9 0 5.1-2.2 5.1-5.06V2668.6c0-1.32-.56-2.64-1.47-3.52z" stroke="#000" stroke-opacity="0" fill="#e7157b"/><use xlink:href="#g" transform="matrix(1,0,0,1,3011.115993141552,2813.780877386292) translate(-23.0234375 33.28125)"/><use xlink:href="#h" transform="matrix(1,0,0,1,3011.115993141552,2813.780877386292) translate(72.9921875 83.8828125)"/><path d="M5016.95 2509.5a5.88 5.88 0 0 1 8.4 0l188.7 192.62a6.12 6.12 0 0 1 0 8.57l-188.7 192.6a5.88 5.88 0 0 1-8.4 0l-188.7-192.6a6.12 6.12 0 0 1 0-8.58z" fill="#ffd9d9"/><path d="M5070.28 2555.37l4.5 4.6m22.46 22.92l44.93 45.84m22.46 22.93l4.5 4.6m22.46 22.92l22.45 22.92a6.12 6.12 0 0 1 0 8.57l-22.46 22.92m-22.48 22.93l-4.5 4.58m-22.45 22.93l-44.93 45.86m-22.47 22.93l-4.5 4.6m-22.46 22.92l-22.45 22.93a5.88 5.88 0 0 1-8.4 0l-22.46-22.93m-22.48-22.93l-4.5-4.6m-22.46-22.92l-44.93-45.86m-22.46-22.93l-4.5-4.58m-22.46-22.93l-22.45-22.93a6.12 6.12 0 0 1 0-8.58l22.46-22.93m22.48-22.94l4.5-4.6m22.45-22.92l44.93-45.85m22.47-22.94l4.5-4.6m22.46-22.92l22.45-22.93a5.88 5.88 0 0 1 8.4 0l22.46 22.94" stroke="#fe7070" stroke-width="6" fill="none"/><path d="M5044.74 2817.9c-4.06.68-8.23 1.1-12.62 1.5-1.75.15-3.5.15-5.38.3-3.6.13-7.34.13-10.97 0-1.86-.15-3.62-.15-5.37-.3-4.4-.4-8.67-.82-12.62-1.5-15.47-2.65-25.12-8.2-25.12-14.43v-88.27c9.44 5.96 27.65 9.7 48.6 9.7 20.95 0 38.84-3.74 48.38-9.56v88.13c0 6.38-9.33 11.78-24.9 14.42m-23.48-124.04c27 0 44.76 6.8 47.83 14-5.27 5.13-22.17 10.67-47.84 10.67s-42.9-5.54-47.94-10.8l-.1.13c3.06-7.2 20.83-14 48.04-14m0-6.37c-32.36 0-54.96 9.27-54.96 22.57v93.4c0 5.83 3.95 16.22 30.5 20.65 4.16.7 8.55 1.25 13.05 1.53 1.87.14 3.73.27 5.6.27 1.97.14 3.84.14 5.8.14 1.98 0 3.85 0 5.72-.14 1.97 0 3.84-.13 5.7-.27 4.5-.28 8.9-.83 13.05-1.53 26.33-4.43 30.28-14.82 30.28-20.64v-93.4c0-13.3-22.5-22.6-54.74-22.6" stroke="#000" stroke-opacity="0" fill="#3a414a"/><use xlink:href="#i" transform="matrix(1,0,0,1,4936.297721125622,2835.0629619223187) translate(85 21.52777777777778)"/><path d="M4952.15 2596.92a6 6 0 0 1 6-6h126a6 6 0 0 1 6 6v70.17a6 6 0 0 1-6 6h-126a6 6 0 0 1-6-6z" fill="none"/><use xlink:href="#j" transform="matrix(1,0,0,1,4957.150826223459,2595.9218515963166) translate(7.990885416666657 26.30837673611111)"/><use xlink:href="#k" transform="matrix(1,0,0,1,4957.150826223459,2595.9218515963166) translate(45.330295138888886 65.66514756944444)"/><path d="M3287.7 2706.4h-60.58" stroke="#6f7681" stroke-width="9" fill="none"/><path d="M3306.47 2706.4l-14.27 4.64v-9.27z" stroke="#6f7681" stroke-width="9" fill="#6f7681"/><path d="M3227.23 2710.88h-4.6v-8.95h4.6z" stroke="#6f7681" stroke-width=".05" fill="#6f7681"/><path d="M4790.16 2706.4h-64.31" stroke="#6f7681" stroke-width="9" fill="none"/><path d="M4808.93 2706.4l-14.27 4.64v-9.27z" stroke="#6f7681" stroke-width="9" fill="#6f7681"/><path d="M4725.95 2710.88h-4.7l.1-4.46-.06-4.37v-.12h4.65z" stroke="#6f7681" stroke-width=".05" fill="#6f7681"/><defs><path d="M162 0v-1349h919v156H353v422h668v154H353v461h769V0H162" id="l"/><path d="M904-1102c199 0 220 177 220 381V0H956v-686c-3-114 0-215-60-264-70-33-125-4-158 71-26 56-39 140-39 252V0H531v-686c-3-114-1-215-61-264-78-41-136 24-157 84-24 69-39 159-39 259V0H105c-3-360 6-732-6-1082h149c6 50 3 123 8 175 36-100 83-195 216-195 135 0 166 79 196 196 42-105 93-196 236-196" id="m"/><path d="M365-904c58-129 161-200 334-200 130 0 228 46 293 138s98 233 98 420c0 189-34 331-102 425S824 20 698 20c-170 0-275-64-336-184 0 55-3 116-9 164H179c5-68 6-147 6-223v-1261h180c-2 193 4 394-4 580h4zm283 791c221 0 256-197 256-427 0-229-34-425-254-425-236 0-285 195-285 441 0 237 53 411 283 411" id="n"/><path d="M617-1102c355 0 481 238 477 599H322c5 222 84 388 301 388 144 0 244-59 284-166l158 45C1002-72 854 20 623 20c-342 0-490-220-490-568 0-346 151-554 484-554zm291 461c-18-192-90-328-289-328-194 0-287 128-295 328h584" id="o"/><path d="M865-914c-3-187-2-380-2-570h180v1261c0 76 1 155 6 223H877c-8-49-9-116-10-174h-5C801-44 708 26 530 26c-135 0-234-46-297-139s-95-232-95-419c0-377 131-566 392-566 176 0 271 63 335 184zm-286-51c-222 0-255 197-255 427 0 229 31 425 253 425 237 0 286-195 286-441 0-238-52-411-284-411" id="p"/><g id="a"><use transform="matrix(0.015190972222222224,0,0,0.015190972222222224,0,0)" xlink:href="#l"/><use transform="matrix(0.015190972222222224,0,0,0.015190972222222224,18.669704861111114,0)" xlink:href="#m"/><use transform="matrix(0.015190972222222224,0,0,0.015190972222222224,37.33940972222223,0)" xlink:href="#n"/><use transform="matrix(0.015190972222222224,0,0,0.015190972222222224,56.00911458333334,0)" xlink:href="#o"/><use transform="matrix(0.015190972222222224,0,0,0.015190972222222224,74.67881944444446,0)" xlink:href="#p"/></g><path d="M410 425v-1909h547v139H590V286h367v139H410" id="q"/><path d="M1065-1013c47 164 49 500-1 665C999-130 875 20 611 20c-377 0-484-300-487-695-2-245 41-425 141-551 77-98 191-144 352-144 261 0 386 140 448 357zM741-155c199-92 203-504 159-785-26-168-96-284-283-284-281 0-308 256-311 549-2 181 18 324 80 428 46 77 115 118 227 120 47 0 90-10 128-28zM496-555v-249h235v249H496" id="r"/><path d="M496 0v-299h235V0H496" id="s"/><path d="M148-1120c216-7 379-89 463-229h166v1204h353V0H157v-145h439v-1021c-79 124-254 184-448 194v-148" id="t"/><path d="M611-1370c266 0 451 106 451 368 0 147-77 243-154 327-132 144-316 255-451 395-42 44-75 87-96 134h723V0H144v-117c124-264 387-411 582-603 73-72 151-147 151-271 0-161-104-231-266-231-163 0-249 90-268 238l-184-17c35-233 185-369 452-369" id="u"/><path d="M259 363l169-662h265L382 363H259" id="v"/><g id="b"><use transform="matrix(0.009765625,0,0,0.009765625,0,0)" xlink:href="#q"/><use transform="matrix(0.009765625,0,0,0.009765625,12.001953125,0)" xlink:href="#r"/><use transform="matrix(0.009765625,0,0,0.009765625,24.00390625,0)" xlink:href="#s"/><use transform="matrix(0.009765625,0,0,0.009765625,36.005859375,0)" xlink:href="#t"/><use transform="matrix(0.009765625,0,0,0.009765625,48.0078125,0)" xlink:href="#u"/><use transform="matrix(0.009765625,0,0,0.009765625,60.009765625,0)" xlink:href="#v"/></g><path d="M1069-1210C890-948 720-664 634-316c-25 105-38 210-38 316H408c9-385 153-667 302-925 57-98 120-190 185-279H158v-145h911v139" id="w"/><path d="M353-779c69-51 166-92 291-90 218 3 357 100 423 255 21 52 32 109 32 170 0 305-189 464-500 464-268 0-424-116-471-335l182-21c35 130 124 212 293 209 198-4 309-114 309-313 0-182-118-282-305-282-120 0-198 45-262 101H169l47-728h801v145H382" id="x"/><g id="c"><use transform="matrix(0.009765625,0,0,0.009765625,0,0)" xlink:href="#r"/><use transform="matrix(0.009765625,0,0,0.009765625,12.001953125,0)" xlink:href="#s"/><use transform="matrix(0.009765625,0,0,0.009765625,24.00390625,0)" xlink:href="#w"/><use transform="matrix(0.009765625,0,0,0.009765625,36.005859375,0)" xlink:href="#x"/><use transform="matrix(0.009765625,0,0,0.009765625,48.0078125,0)" xlink:href="#v"/></g><path d="M270 425V286h367v-1631H270v-139h547V425H270" id="y"/><g id="d"><use transform="matrix(0.009765625,0,0,0.009765625,0,0)" xlink:href="#s"/><use transform="matrix(0.009765625,0,0,0.009765625,12.001953125,0)" xlink:href="#s"/><use transform="matrix(0.009765625,0,0,0.009765625,24.00390625,0)" xlink:href="#s"/><use transform="matrix(0.009765625,0,0,0.009765625,36.005859375,0)" xlink:href="#y"/></g><path d="M650-1214c-281 0-336 244-336 533 0 295 60 546 347 546 188 0 263-142 322-282l159 65C1058-155 935 20 659 20c-401 0-546-295-546-701 0-407 135-689 536-689 264 0 391 146 466 335l-168 65c-47-129-127-244-297-244" id="z"/><path d="M648-963c-190 6-283 138-283 336V0H185v-1484h181c-2 197 6 404-9 587h3c62-120 159-205 339-205 242 0 351 135 350 381V0H868v-695c1-168-57-273-220-268" id="A"/><path d="M528 20c-247 0-343-132-343-381v-721h180v686c-4 177 45 284 224 277 194-8 279-136 279-336v-627h181c3 360-6 732 6 1082H885c-4-54-7-126-8-185h-3C809-64 714 20 528 20" id="B"/><path d="M706-1102c241 0 344 136 343 381V0H868v-695c1-168-57-273-220-268-190 6-283 138-283 336V0H185c-3-360 6-732-6-1082h170c4 54 7 126 8 185h3c63-121 164-204 346-205" id="C"/><path d="M914 0L548-499l-132 98V0H236v-1484h180v927l475-525h211L663-617 1125 0H914" id="D"/><g id="e"><use transform="matrix(0.015190972222222224,0,0,0.015190972222222224,0,0)" xlink:href="#z"/><use transform="matrix(0.015190972222222224,0,0,0.015190972222222224,18.669704861111114,0)" xlink:href="#A"/><use transform="matrix(0.015190972222222224,0,0,0.015190972222222224,37.33940972222223,0)" xlink:href="#B"/><use transform="matrix(0.015190972222222224,0,0,0.015190972222222224,56.00911458333334,0)" xlink:href="#C"/><use transform="matrix(0.015190972222222224,0,0,0.015190972222222224,74.67881944444446,0)" xlink:href="#D"/></g><path d="M622-1349c296 4 497 117 497 404 0 282-193 424-485 431H353V0H162v-1349h460zm-15 684c195-3 320-88 320-277 0-184-129-255-328-254H353v531h254" id="E"/><path d="M1000-272c3 95 12 159 101 161 21 0 41-3 59-7V-6c-44 10-86 16-139 16-141 2-191-84-197-217h-6C748-76 648 20 446 20c-207 0-318-120-318-322 0-266 194-348 454-354l236-4c12-191-40-305-222-305-140 0-220 47-232 172l-188-17c33-204 181-292 423-292 255 0 401 118 401 364v466zm-683-27c0 109 63 184 175 182 166-3 259-96 306-217 24-65 20-120 20-200-232 7-501-28-501 235" id="F"/><path d="M839-1102c70 0 148 7 206 17v167c-112-18-268-36-363 15-129 69-208 203-208 395V0H294c-10-367 32-789-52-1082h171c21 75 41 161 48 250h5c67-152 152-270 373-270" id="G"/><path d="M873-819c-18-114-119-146-250-146-163 0-245 50-245 151 0 151 170 148 294 185 182 54 388 94 388 320 0 240-189 325-439 329-245 4-410-69-454-268l159-31c24 133 136 168 295 165 144-2 270-31 270-171 0-164-195-160-331-202-167-52-350-87-350-299 0-218 173-315 413-313 220 2 373 77 412 260" id="H"/><g id="f"><use transform="matrix(0.015190972222222224,0,0,0.015190972222222224,0,0)" xlink:href="#E"/><use transform="matrix(0.015190972222222224,0,0,0.015190972222222224,18.669704861111114,0)" xlink:href="#F"/><use transform="matrix(0.015190972222222224,0,0,0.015190972222222224,37.33940972222223,0)" xlink:href="#G"/><use transform="matrix(0.015190972222222224,0,0,0.015190972222222224,56.00911458333334,0)" xlink:href="#H"/><use transform="matrix(0.015190972222222224,0,0,0.015190972222222224,74.67881944444446,0)" xlink:href="#o"/></g><path d="M604-135c236 0 291-142 291-376v-838h190v859c5 340-142 510-480 510-326 0-463-164-463-492v-877h191v851c-3 222 46 363 271 363" id="I"/><path d="M682 16c-209 0-323-80-324-285v-671H190v-142h170l58-282h120v282h432v142H538v652c2 114 60 155 182 155 106 0 209-16 297-34v137C921-4 806 16 682 16" id="J"/><path d="M631 20c-350 0-501-215-501-562 0-355 162-560 502-560 250 0 399 118 446 323l-192 14c-23-124-109-196-262-196-242 0-305 171-305 415 1 245 61 427 304 427 151 0 248-77 267-215l190 12C1039-107 883 20 631 20" id="K"/><g id="g"><use transform="matrix(0.01953125,0,0,0.01953125,0,0)" xlink:href="#I"/><use transform="matrix(0.01953125,0,0,0.01953125,24.00390625,0)" xlink:href="#C"/><use transform="matrix(0.01953125,0,0,0.01953125,48.0078125,0)" xlink:href="#H"/><use transform="matrix(0.01953125,0,0,0.01953125,72.01171875,0)" xlink:href="#J"/><use transform="matrix(0.01953125,0,0,0.01953125,96.015625,0)" xlink:href="#G"/><use transform="matrix(0.01953125,0,0,0.01953125,120.01953125,0)" xlink:href="#B"/><use transform="matrix(0.01953125,0,0,0.01953125,144.0234375,0)" xlink:href="#K"/><use transform="matrix(0.01953125,0,0,0.01953125,168.02734375,0)" xlink:href="#J"/><use transform="matrix(0.01953125,0,0,0.01953125,192.03125,0)" xlink:href="#B"/><use transform="matrix(0.01953125,0,0,0.01953125,216.03515625,0)" xlink:href="#G"/><use transform="matrix(0.01953125,0,0,0.01953125,240.0390625,0)" xlink:href="#o"/><use transform="matrix(0.01953125,0,0,0.01953125,264.04296875,0)" xlink:href="#p"/></g><path d="M473-1349c438-1 655 221 652 661C1122-268 945-8 532 0H162v-1349h311zm42 1193c308-4 416-205 418-532 2-330-131-509-459-505H353v1037h162" id="L"/><g id="h"><use transform="matrix(0.01953125,0,0,0.01953125,0,0)" xlink:href="#L"/><use transform="matrix(0.01953125,0,0,0.01953125,24.00390625,0)" xlink:href="#F"/><use transform="matrix(0.01953125,0,0,0.01953125,48.0078125,0)" xlink:href="#J"/><use transform="matrix(0.01953125,0,0,0.01953125,72.01171875,0)" xlink:href="#F"/></g><path d="M713 0H515L10-1349h201C345-955 498-579 615-168c116-411 269-787 402-1181h201" id="M"/><path d="M615-1102c343 0 484 203 482 560-1 347-147 562-488 562-336 0-475-219-479-562-4-349 156-560 485-560zm-8 989c240 0 301-180 301-429 0-245-55-427-290-427-236 0-299 181-299 427 0 243 61 429 288 429" id="N"/><g id="j"><use transform="matrix(0.015190972222222224,0,0,0.015190972222222224,0,0)" xlink:href="#M"/><use transform="matrix(0.015190972222222224,0,0,0.015190972222222224,18.669704861111114,0)" xlink:href="#o"/><use transform="matrix(0.015190972222222224,0,0,0.015190972222222224,37.33940972222223,0)" xlink:href="#K"/><use transform="matrix(0.015190972222222224,0,0,0.015190972222222224,56.00911458333334,0)" xlink:href="#J"/><use transform="matrix(0.015190972222222224,0,0,0.015190972222222224,74.67881944444446,0)" xlink:href="#N"/><use transform="matrix(0.015190972222222224,0,0,0.015190972222222224,93.34852430555557,0)" xlink:href="#G"/></g><path d="M802-711c201 25 350 118 350 331C1152-95 921 0 634 0H162v-1349c401 9 908-74 908 327 0 184-111 275-268 311zm-224-69c174-2 300-51 300-218 0-163-124-198-302-198H353v416h225zM353-153c281-2 612 44 606-244-5-271-329-233-606-234v478" id="O"/><g id="k"><use transform="matrix(0.015190972222222224,0,0,0.015190972222222224,0,0)" xlink:href="#L"/><use transform="matrix(0.015190972222222224,0,0,0.015190972222222224,18.669704861111114,0)" xlink:href="#O"/></g></defs></g></svg>