<svg xmlns="http://www.w3.org/2000/svg" viewBox="63.79499816894531 50.00000000000003 447.4100036621094 474.9985133739441"> <svg xmlns="http://www.w3.org/2000/svg" id="Layer_1" dataName="Layer 1" viewBox="54.56873321533203 41.573890686035156 425.4412841796875 419.5090026855469" height="236.17672306532415" width="239.51648048415566" y="120.00000000000003" x="152.08938561632488" preserveAspectRatio="xMinYMin" style="overflow: visible;"><ellipse class="cls-1" cx="296.93" cy="453.59" rx="183.08" ry="6.1" style="fill: #A67C52; fill-opacity: 1;"></ellipse><path class="cls-2" d="M369.9,456.73c6.55.1,13.37.15,19.29-2.66,7.38-3.5,12.13-10.91,15.2-18.47,9.13-22.52,8.27-52-1.07-77.32-9.63-26.08-2.15-49.86-5.49-77.46-1.8-14.94-7.95-31.79,1.27-43.69,3.5-4.52,13-7.73,17-11.81a48.39,48.39,0,0,0,13.7-32.93,17,17,0,0,1-2.44-17.74,55,55,0,0,0-14.14-49.18C400.84,112.76,383.11,107,366,102.31c-25.77-7.08-51.88-12.79-78-18.51-7.16-1.56-15.4-2.91-21.2,1.57-5.23,4-6.46,11.47-6,18.07s2.15,13.21,1.17,19.75c-3.08,20.64-30.59,31.32-32.5,52.1-.55,6,1.19,11.84,2.11,17.74,2.79,17.79-1.79,35.82-6.33,53.25q-12,46.07-24,92.12c-5.1,19.53-10.21,40.06-5.38,59.66,5.15,20.91,23.37,38.11,42.07,47.87,23.51,12.26,51.8,9.51,77.4,9.92Z" style="fill: #FFFDD0; fill-opacity: 1;"></path><path class="cls-3" d="M421.85,218.27c-3.91,7.7-10.38,11.48-15.16,8.87s-5.65-10.51-2-17.68c3.86-7.57,9.57-12.72,15.63-8.68C424.88,203.2,425.57,211,421.85,218.27Z" style="fill: #FFFDD0; fill-opacity: 1;"></path><path class="cls-1" d="M272.67,115.82s-14.16-9.34-5.12-19.89,23.81-6,25.31,8.44c0,0,59.68,27.43,67.51,82,0,0,6.63-13.57,17.48-13.87s14.47,11.45,14.47,11.45,16.27-30.13,33.45-34.35c0,0-1.36-63.29-64.64-73.24s-59.68,4.07-59.68,4.07-8.13-28.93-24-30.28l-15.82-1.36-3,7.83S218.12,83,272.67,115.82Z" style="fill: #A67C52; fill-opacity: 1;"></path><path class="cls-1" d="M326.92,278s1.51,11.46,11.45,15.07,19.29,14.17,11.76,23.21-22,19-34.06,13-22-25.32-22.3-39.78C293.77,289.42,320,286.7,326.92,278Z" style="fill: #A67C52; fill-opacity: 1;"></path><path class="cls-1" d="M415.82,290.62s10.25-5.12,12.06,9.34-8,37.83-18.84,26.37S400.76,287.91,415.82,290.62Z" style="fill: #A67C52; fill-opacity: 1;"></path><path class="cls-1" d="M399.55,360.24s24.71,31,18.38,46.71-4.82,14.77-4.82,14.77,15.67,3.92,20.19,13.86,8.74,14.47,3,15.37-92.22,2.11-92.22,2.11S404.52,443,399.55,360.24Z" style="fill: #A67C52; fill-opacity: 1;"></path><path class="cls-1" d="M323.6,452s9.95-9.5-5.42-19-23.06-14.47-23.06-14.47,8.59-22.15.91-34.35-30.29-21.7-30.29-21.7-42-16.28-22.15-100.36-80.92-80-80.92-80-47,16.72-56.51,25.31S40.84,268.47,70,343.06s70.52,80,70.52,80l59.67,17.63S247.66,470.09,323.6,452Z" style="fill: #A67C52; fill-opacity: 1;"></path><path class="cls-4" d="M325.26,180.79c0,7.9-5.59,13.67-13.1,13.51a13.7,13.7,0,0,1-13.49-13.58,13.32,13.32,0,0,1,13.79-13.55C319.58,167.25,325.27,173.3,325.26,180.79Z" style="fill: #4E342E; fill-opacity: 1;"></path><path class="cls-3" d="M292.71,201.37c0,10.14-7.17,17.54-16.81,17.35a17.61,17.61,0,0,1-17.32-17.44c0-10,4.9-18.4,17.7-17.39C285.42,184,292.72,191.76,292.71,201.37Z" style="fill: #FFFDD0; fill-opacity: 1;"></path><path class="cls-4" d="M401.58,189.45c1.46-5.4,2.54-10.32,4.22-15,.49-1.36,2.72-2.09,4.16-3.1.87,1.49,2.18,2.88,2.54,4.48a21.22,21.22,0,0,1-2.31,15.1c-1.14,2.08-3.56,3.46-5.4,5.15Z" style="fill: #4E342E; fill-opacity: 1;"></path><path class="cls-4" d="M374.85,208.88c-2.31-.15-4.65-1.19-4.76-4.57s4.49-6.76,8.71-6.63c3,.08,4.83,1.47,4.86,4.6C383.69,205.76,379.68,209,374.85,208.88Z" style="fill: #4E342E; fill-opacity: 1;"></path><path class="cls-2" d="M287.44,451.55s-17.69,0-14.47-9.49c3.62-10.62,7.91-15.91,25.09-16.73s28.26,8.59,26.9,16.73S302.36,456.53,287.44,451.55Z" style="fill: #FFFDD0; fill-opacity: 1;"></path><path class="cls-2" d="M410,451.55s-11.93,0-9.75-9.49c2.43-10.62,5.32-15.91,16.9-16.73s19,8.59,18.13,16.73S420.07,456.53,410,451.55Z" style="fill: #FFFDD0; fill-opacity: 1;"></path><path class="cls-2" d="M100.72,257.8a2.07,2.07,0,0,1-3.49-2.18c8.46-18,25.27-43.86,53.46-48.63C194.77,199.53,207,225.3,207,231.4s-5.42,19-13.56,13.56C186,240,138.81,209.51,100.72,257.8Z" style="fill: #FFFDD0; fill-opacity: 1;"></path><path class="cls-4" d="M434.71,428.71C430,424.5,424.57,421.07,419,417c.19-.66.55-1.79.85-2.94,4.52-17,2.79-33.51-7.4-47.82a35.21,35.21,0,0,1-6.86-22.88,1.8,1.8,0,0,0,0-.4c-.41-2.89.63-4.46,3.57-5.63A35.27,35.27,0,0,0,430,315.36c3.62-10.33,2.1-19.7-6.66-27.23a4.74,4.74,0,0,1-.89-1.07,35.34,35.34,0,0,1-7.2,2.16c-2.7.56-5.42,1.06-8.11,1.67-3.38.77-6.74,1.67-10.1,2.51s-6.71,1.66-10.12,2.25a36.2,36.2,0,0,1-10.07.57c-3.43-.36-6.8-1.17-10.23-1.56-3.09-.34-6.21-.3-9.3-.75a27.67,27.67,0,0,1-8.28-2.52,23.44,23.44,0,0,1-3.81-2.39,25.76,25.76,0,0,0-2.2-1.56l-.16.2-.6-.64c-.27-.13-.53-.26-.81-.37a.42.42,0,0,1-.16-.66c-3.9-4.15-7.78-8.21-11.51-12.4-5.2-5.86-11.22-10.23-19.12-11.54a11.94,11.94,0,0,0-1.58-.18,5.6,5.6,0,0,0-1.19.31c2,1.61,4.17,2.81,5.67,4.55,3.71,4.31,7.29,8.75,10.63,13.35,5.26,7.22,10,14.8,19.05,18.14,5.3,1.95,6.63,6.89,4,12.25-3,6.09-8.42,9.22-14.58,11-14.3,4.11-28.47,2.91-42.46-1.72-2.23-.74-4.46-1.5-7.1-2.39,11.64,18.65,41.49,22.05,60.24,11.12,12.56,20.74,29.16,28.58,52.15,14.93.29,5.42.72,10.05.71,14.68a12.28,12.28,0,0,0,3.3,8.66c7.13,8.13,11.5,17.52,12.34,28.46a41.42,41.42,0,0,1-4,20.55c-.92,2-1.86,4.07-3,6.48,1.55.76,2.82,1.41,4.1,2,8.48,3.94,15.9,9.25,21.59,16.74.8,1.05.93,2.6,1.36,3.92a17.9,17.9,0,0,1-3.72.92c-14.66.49-29.33.79-44,1.36-16.78.65-33.55,1.51-50.33,2.28-.78,0-1.57,0-2.84,0,1.4-5.65.62-10.82-2.94-15.42a36.69,36.69,0,0,0-16.91-12.3c-3-1.07-6.06-1.88-9.07-2.81,6.8-34.8-16.65-58.67-38.6-57.68,26.65,13.79,35.71,34.34,24.84,63.22,12.81,3.38,25.09,8,33.71,20.13-8.65.81-16.42,1.66-24.22,2.24-17,1.26-34.06,3.74-51,3.29-34.84-.91-51.17-22.37-53.43-50.73-1.89-23.65,4.39-45.84,14.32-66.9,7.14-15.16,15.69-29.67,23.74-44.39,4.61-8.42,9.74-16.55,14.14-25.07a41.59,41.59,0,0,0,4.6-13.52c1.48-11.8,4.64-22.47,15.82-30-2.08-.49-3.31-.75-4.52-1.08C251,215.6,243,209.7,239.06,199.2c-2.1-5.61-1.61-6.7,3.71-9.64L240,188.15c-6.5-3.32-9.9-8.78-10.59-15.88a4.79,4.79,0,0,1,1.93-3.85c13-6.89,20.15-18.71,26.55-31.16,2.44-4.74,4.62-9.63,7.26-14.26,1.72-3,4.05-5.69,6.37-8.89L269,112.6c-12.54-7.52-20.23-24.89-17.21-39A29.06,29.06,0,0,1,253,69.41c3.14-8.23,5.74-9.85,15.51-9.12-.7-3.46-1.35-6.7-2.18-10.79a50.3,50.3,0,0,1,6.39,2c10,4.65,15.69,12.9,18.57,23.26a56.11,56.11,0,0,1,.84,26.52,7.16,7.16,0,0,0,.33,4c.92-.94,2.16-1.72,2.72-2.84,2.66-5.32,5.06-10.77,7.7-16.1.69-1.39,1.66-3.28,2.9-3.67C343,71,390.08,81.88,411.1,119.2c8,14.28,12.51,29.69,9.68,46.41a47,47,0,0,1-1.79,6.55c-2.33,7.29-1.28,10.27,5.18,14.4,4.28,2.72,4.51,5.24.28,8.24-1.91,1.35-1.93,2.8-2.42,4.77-1.23,5-2.71,10.07-5.25,14.44-4.89,8.38-12.32,14.31-21.17,18.29-2.51,1.13-3.72,2.65-4,5.33-.43,4.38-1.21,8.72-1.6,13.1a6,6,0,0,1-.19,1.14c.55.09,0,6,.52,6.05,2,.3,5.21,8.82,7.23,9-.16-.59-.19-15.33,0-16.2,1.09-5.62,2.92-10.22,8.22-13.83,11.79-8,21-18.47,25.23-32.56.78-2.61,3.46-6.28-1.17-7.33,5.55-3.39,7.6-6.52,9.39-12.32-1.67-.32-2.84-.5-4-.78-6.73-1.65-8.73-5.56-6.66-12.07a62.35,62.35,0,0,0,3-12.8c2.31-24.38-6-45.13-22.5-62.73-3.65-3.92-6.1-7.51-5.82-13.14.18-3.75-.92-7.67-2-11.37-3.05-10.85-9-19.62-19.28-24.85a26.94,26.94,0,0,0-15.55-2.83c1.17,3.2,2.19,6,3.28,9A18.84,18.84,0,0,0,358.35,65.3c-.87,2.79-2.21,2.82-4.67,2.6-8.21-.73-16.49-1.81-24.68-1.45-9.24.42-18.42,2.25-27.94,3.51-.13-.28-.49-1-.81-1.69Q287.86,40.35,257.1,41.63c-3.07.12-4.28,1-3,4,1.56,3.62.83,6.38-2.32,9.11-8.64,7.45-11.58,17.36-10.94,28.42.72,12.31,6.44,22.41,14.74,31.17,1.59,1.68,2.06,3,.93,5.21-3.44,6.78-6.23,13.92-10,20.46a76,76,0,0,1-11.8,16c-3,2.94-7.73,4.48-12,5.57-2.64.68-3.27,1.49-3.11,3.82a44,44,0,0,0,6.64,19.92c.82,1.37,1.47,2.83,2.2,4.25a11,11,0,0,1-4.61-1.39c-55.89-29-115.31-8.71-145.4,39.24-32,51-31.51,103.52-.36,154.67C101.76,421,138.28,442,182.63,449.75c15.42,2.71,31.34,2.77,46.13,8.77a5.85,5.85,0,0,0,1.18.22c15.6,3,31.36,2.42,47.09,2q75-1.89,150-3.92a28.2,28.2,0,0,0,4.77-.43c6.58-1.27,10.43-6,10.35-12.72C442.11,437.5,439,432.56,434.71,428.71ZM408,296.8c2.16-4,6.48-4.14,8.6-.22,1.87,3.45,3.36,7.76,3.07,11.55-.32,4.31-2.35,8.71-4.46,12.63-2.4,4.48-6.23,4.14-8.18-.65-1.47-3.63-2.05-7.62-3.18-12.07C405.19,304.37,406.11,300.31,408,296.8ZM180.08,371c-3.79,12-10.43,22.18-20.67,29.65-9.17,6.69-19.68,7.85-30.13,4.38-28.75-9.54-48.19-28.47-56.85-58A157.94,157.94,0,0,1,66,304.43c.52-33.68,9.8-63.69,34.31-87.56,20.34-19.81,44.71-30.8,73.29-30.66,8.93,0,18,2.11,26.73,4.13,17.5,4,26.6,16.2,30.09,33.12,4.29,20.74-.37,40-10.47,58.11-11,19.78-22.93,39.14-30.78,60.51C185.73,351.56,183.12,361.37,180.08,371Z" style="fill: #4E342E; fill-opacity: 1;"></path><path class="cls-5" d="M341.16,285.05s13.26,11.45,22.9,17.78,28.94,9.34,40.09,2.71,16.57-17.48,14.16-24.71-13-10.25-21.7-11.15c0,0-5.12-14.47-16-15.07s-18.38,9.64-19,16C361.65,270.58,340.86,272.09,341.16,285.05Z" style="fill: #006994; fill-opacity: 1;"></path><path class="cls-4" d="M388.15,313.26c-9.67,0-19.72-2.78-26.28-7.09-9.75-6.4-22.78-17.62-23.33-18.09l-1.34-1.17,0-1.77c-.17-7,4.34-12.69,12.69-15.92a43.44,43.44,0,0,1,8.49-2.25c2.5-8,11.16-17,22.52-16.36,10.45.58,16.34,10.67,18.54,15.37,8,1.14,19.64,4.38,22.71,13.58,3.16,9.5-3.68,22.14-15.92,29.42C401.17,312,394.75,313.26,388.15,313.26Zm-42.83-29.93c3.75,3.17,13.53,11.29,20.94,16.15,8.85,5.81,26.43,8.22,35.84,2.62,9.84-5.85,14.1-14.94,12.41-20s-10.55-7.63-18.31-8.43l-2.52-.26-.84-2.39c0-.11-4.52-12-12.42-12.41-8.37-.46-14.34,7.74-14.78,12.36l-.32,3.37-3.38.24C361.79,274.58,347.05,275.92,345.32,283.33Z" style="fill: #4E342E; fill-opacity: 1;"></path></svg> <svg y="383.45851245841675" viewBox="7.619999885559082 36.08000183105469 307.4100036621094 71.54000091552734" x="133.7949981689453" height="71.54000091552734" width="307.4100036621094" xmlns="http://www.w3.org/2000/svg" style="overflow: visible;"><g fill="#4E342E" fill-opacity="1" style=""><path d="M45.43 70.43Q51.12 71.44 55.08 76.42Q59.04 81.40 59.04 87.70L59.04 87.70Q59.04 93.09 56.25 97.41Q53.45 101.73 48.17 104.21Q42.89 106.70 35.87 106.70L35.87 106.70L7.62 106.70L7.62 36.08L34.55 36.08Q41.77 36.08 46.95 38.52Q52.13 40.95 54.78 45.07Q57.42 49.19 57.42 54.27L57.42 54.27Q57.42 60.36 54.17 64.43Q50.91 68.49 45.43 70.43L45.43 70.43ZM19.21 45.53L19.21 65.75L33.54 65.75Q39.23 65.75 42.43 63.16Q45.63 60.57 45.63 55.69L45.63 55.69Q45.63 50.91 42.43 48.22Q39.23 45.53 33.54 45.53L33.54 45.53L19.21 45.53ZM34.86 97.25Q40.75 97.25 44.10 94.41Q47.46 91.56 47.46 86.48L47.46 86.48Q47.46 81.30 43.90 78.25Q40.34 75.20 34.45 75.20L34.45 75.20L19.21 75.20L19.21 97.25L34.86 97.25ZM102.64 50.71L114.22 50.71L114.22 106.70L102.64 106.70L102.64 100.10Q99.90 103.55 95.48 105.54Q91.05 107.52 86.08 107.52L86.08 107.52Q79.47 107.52 74.24 104.77Q69.00 102.03 66.00 96.64Q63.01 91.26 63.01 83.64L63.01 83.64L63.01 50.71L74.49 50.71L74.49 81.91Q74.49 89.43 78.25 93.44Q82.01 97.46 88.51 97.46L88.51 97.46Q95.02 97.46 98.83 93.44Q102.64 89.43 102.64 81.91L102.64 81.91L102.64 50.71ZM132.92 58.84Q135.46 54.57 139.68 52.18Q143.90 49.80 149.69 49.80L149.69 49.80L149.69 61.79L146.74 61.79Q139.94 61.79 136.43 65.24Q132.92 68.70 132.92 77.23L132.92 77.23L132.92 106.70L121.34 106.70L121.34 50.71L132.92 50.71L132.92 58.84ZM163.82 58.84Q166.36 54.57 170.57 52.18Q174.79 49.80 180.58 49.80L180.58 49.80L180.58 61.79L177.64 61.79Q170.83 61.79 167.32 65.24Q163.82 68.70 163.82 77.23L163.82 77.23L163.82 106.70L152.23 106.70L152.23 50.71L163.82 50.71L163.82 58.84ZM207.41 107.62Q199.49 107.62 193.08 104.01Q186.68 100.40 183.02 93.85Q179.37 87.29 179.37 78.66L179.37 78.66Q179.37 70.12 183.13 63.51Q186.89 56.91 193.39 53.35Q199.89 49.80 207.92 49.80L207.92 49.80Q215.95 49.80 222.45 53.35Q228.96 56.91 232.72 63.51Q236.48 70.12 236.48 78.66L236.48 78.66Q236.48 87.19 232.62 93.80Q228.75 100.40 222.10 104.01Q215.44 107.62 207.41 107.62L207.41 107.62ZM207.41 97.56Q211.88 97.56 215.80 95.42Q219.71 93.29 222.15 89.02Q224.59 84.75 224.59 78.66L224.59 78.66Q224.59 72.56 222.25 68.34Q219.91 64.12 216.05 61.99Q212.19 59.86 207.72 59.86L207.72 59.86Q203.25 59.86 199.44 61.99Q195.63 64.12 193.39 68.34Q191.15 72.56 191.15 78.66L191.15 78.66Q191.15 87.70 195.78 92.63Q200.40 97.56 207.41 97.56L207.41 97.56ZM303.65 50.71L315.03 50.71L297.66 106.70L285.46 106.70L274.18 65.34L262.90 106.70L250.71 106.70L233.23 50.71L245.01 50.71L256.70 95.73L268.59 50.71L280.68 50.71L292.07 95.53L303.65 50.71Z" transform="translate(0, 0)"></path></g></svg></svg>