<svg xmlns="http://www.w3.org/2000/svg" xmlns:xlink="http://www.w3.org/1999/xlink" xmlns:lucid="lucid" width="1281.36" height="655.71"><g transform="translate(-8161.115993141553 2466.8131175430376)" lucid:page-tab-id="0_0"><path d="M-23500-12000h44500v27000h-44500z" fill="#fff"/><path d="M8408.13-2459.3a6 6 0 0 1 6-6h1020.85a6 6 0 0 1 6 6v640.7a6 6 0 0 1-6 6H8414.13a6 6 0 0 1-6-6z" stroke="#232f3e" stroke-width="3" fill="#fff"/><path d="M8408.13-2465.3h56v56h-56v-56z" stroke="#fff" stroke-opacity="0" fill="#232f3e"/><path d="M8449-2424.1h-25c-4.12.06-7.56-3.08-7.88-7.2v-.63c-.16-3.4 1.96-6.38 5.24-7.36v-.65c.12-4.22 2.44-7.75 6.24-9.58 4.12-1.84 8.72-.94 11.8 2.33 1.08 1.08 1.84 2.2 2.44 3.58 1.2-1 2.73-1.32 4.25-.9 2.23.8 3.67 2.75 3.75 5.1 3.68.66 6.32 3.8 6.28 7.57 0 7.07-7.04 7.73-7.12 7.75zm-26.68-13.87c-2.84.6-4.76 3.14-4.6 6.04v.53c.28 3.32 3.08 5.83 6.4 5.75h24.97c3.03-.3 5.4-2.64 5.67-5.7.28-3.43-2.24-6.5-5.68-6.78-.45-.05-.73-.45-.65-.87.08-1.85-1-3.45-2.73-4.14-1.3-.37-2.64.13-3.43 1.24-.22.24-.46.37-.78.32-.28-.06-.48-.24-.6-.5-.6-1.62-1.4-2.86-2.6-4.04-2.68-2.8-6.6-3.6-10.12-2-3.24 1.6-5.2 4.64-5.32 8.25-.04.4-.04.74 0 1.13.04.4-.2.77-.6.85z" stroke="#fff" stroke-opacity="0" fill="#fff"/><use xlink:href="#a" transform="matrix(1,0,0,1,8479.127430357496,-2445.3131175372646) translate(0 18.50043402777778)"/><use xlink:href="#b" transform="matrix(1,0,0,1,8479.127430357496,-2445.3131175372646) translate(66.67751736111111 18.50043402777778)"/><path d="M8528.13-2165.73h120v120h-120v-120z" stroke="#000" stroke-opacity="0" fill="#8c4fff"/><path d="M8610.8-2087.58c0-2.44-2-4.45-4.53-4.45-2.44 0-4.45 2-4.45 4.45 0 2.52 2 4.53 4.45 4.53 2.52 0 4.54-2 4.54-4.53zm3.03 0c0 4.2-3.36 7.56-7.56 7.56-4.1 0-7.48-3.36-7.48-7.56 0-4.12 3.36-7.48 7.47-7.48 4.2 0 7.56 3.36 7.56 7.48zm-40.15-21.6c0-2.5-2.02-4.53-4.45-4.53-2.52 0-4.54 2-4.54 4.53 0 2.44 2 4.45 4.53 4.45 2.43 0 4.45-2 4.45-4.45zm3.02 0c0 4.13-3.36 7.5-7.47 7.5-4.12 0-7.48-3.37-7.48-7.5 0-4.1 3.36-7.55 7.48-7.55 4.1 0 7.47 3.44 7.47 7.56zm11-23.5c0 2.43 2.02 4.44 4.54 4.44 2.44 0 4.45-2 4.45-4.45 0-2.5-2.02-4.53-4.46-4.53-2.52 0-4.53 2.02-4.53 4.54zm-3.02 0c0-4.2 3.45-7.57 7.56-7.57 4.12 0 7.48 3.36 7.48 7.56 0 4.13-3.36 7.5-7.48 7.5-4.1 0-7.56-3.37-7.56-7.5zm42.42 26.95c0-13.94-7.47-26.8-19.5-33.76-2.1.5-4.18 1.1-6.8 2.02l-1-2.85c1.35-.5 2.52-.84 3.7-1.18-4.8-2.1-10.08-3.2-15.37-3.2-2.52 0-5.04.25-7.48.75 1.77 1 3.36 2.02 4.87 3.2l-1.85 2.35c-2.1-1.6-4.36-2.94-7.22-4.54-14.78 4.62-25.37 17.64-27.05 32.93 3.1-.68 6.05-1.02 9.33-1.1l.08 3.02c-3.43.1-6.37.42-9.65 1.18v1.17c0 13.02 6.4 24.95 16.97 32.18-1.85-5.63-2.86-10.92-2.86-16.05 0-2.94.6-5.37 1.1-7.9.08-.67.25-1.25.33-1.84l2.93.6c-.08.57-.25 1.25-.33 1.83-.5 2.5-1 4.7-1 7.3 0 5.88 1.25 11.93 3.94 18.48 5.54 2.94 11.6 4.37 17.9 4.37 4.1 0 8.14-.67 12-1.93 1.5-2.94 2.6-5.8 3.6-9l2.87.85c-.67 2.35-1.5 4.45-2.43 6.64 2.44-1.1 4.7-2.43 6.9-4.03-.5-1.26-1.1-2.52-1.7-3.78l2.7-1.35c.5 1.1 1 2.18 1.43 3.2 8.65-7.4 13.6-18.07 13.6-29.58zm3.03 0c0 13.1-5.97 25.2-16.3 33.27-2.6 1.93-5.38 3.6-8.32 4.95-1.25.58-2.5 1.1-3.85 1.5-4.28 1.52-8.82 2.27-13.52 2.27-6.9 0-13.78-1.68-19.83-4.95-13.7-7.3-22.17-21.5-22.17-37.05 0-1 0-1.84.08-2.52 1.02-17.55 13.03-32.67 29.9-37.7 3.88-1.2 7.9-1.78 12.03-1.78 7.22 0 14.28 1.85 20.5 5.38 13.27 7.4 21.5 21.42 21.5 36.62zm-46.03-21.84c-3.1 2.78-5.63 5.72-8.5 10.17l-2.5-1.6c3-4.7 5.7-7.9 9.06-10.75l1.93 2.18zm-4.54 19.5c7.3 2.5 13.7 6.46 20 12.5l-2.1 2.2c-5.97-5.72-12.02-9.5-18.9-11.85l1-2.86zm20.08-17.65c5.62 8.57 8.73 17.98 9.4 27.97l-3.02.26c-.6-9.5-3.6-18.47-8.9-26.54l2.5-1.68z" stroke="#000" stroke-opacity="0" fill="#fff"/><use xlink:href="#c" transform="matrix(1,0,0,1,8498.127430357494,-2036.7258646272303) translate(16.654730902777757 18.489583333333332)"/><use xlink:href="#d" transform="matrix(1,0,0,1,8498.127430357494,-2036.7258646272303) translate(29.99023437499998 18.489583333333332)"/><path d="M8885.63-2103.37c0 31.8-25.76 57.63-57.5 57.63s-57.5-25.82-57.5-57.63c0-31.8 25.76-57.63 57.5-57.63s57.5 25.82 57.5 57.63z" fill="#9d5025"/><path d="M8885.63-2108.1c0 31.82-25.76 57.63-57.5 57.63s-57.5-25.8-57.5-57.63c0-31.8 25.76-57.63 57.5-57.63s57.5 25.82 57.5 57.63z" fill="#f58536"/><path d="M8844.9-2154.65v20.93h-33.56v-20.93h33.55zM8870.85-2094.1v17.05h-17v-17.04h17zM8849.36-2094.1v17.05h-17v-17.04h17zM8823.18-2094.1v17.05h-17v-17.04h17zM8801.68-2094.1v17.05h-17v-17.04h17z" fill="#fff"/><path d="M8791.65-2108.83h3.06v16.7h-3.05v-16.7z" fill="#fff"/><path d="M8791.65-2108.83h24.56v3.06h-24.55v-3.06z" fill="#fff"/><path d="M8813.15-2108.83h3.06v16.7h-3.05v-16.7zM8839.33-2108.83h3.06v16.7h-3.07v-16.7z" fill="#fff"/><path d="M8839.33-2108.83h24.56v3.06h-24.57v-3.06z" fill="#fff"/><path d="M8860.83-2108.83h3.06v16.7h-3.07v-16.7zM8802.42-2120.77h3.06v13.46h-3.06v-13.47zM8826.6-2136.8h3.05v16.28h-3.06v-16.3z" fill="#fff"/><path d="M8802.42-2122.06h50.78v3.06h-50.78v-3.06z" fill="#fff"/><path d="M8850.14-2120.77h3.06v13.46h-3.06v-13.47z" fill="#fff"/><use xlink:href="#e" transform="matrix(1,0,0,1,8770.627430357492,-2045.7258646272303) translate(37.49674479166667 18.489583333333332)"/><path d="M9008.13-2165.73h120v120h-120v-120z" stroke="#000" stroke-opacity="0" fill="#ed7100"/><path d="M9104.15-2093.4l-12-7.25v-17.1c0-.5-.3-1-.77-1.27l-17.2-10.08v-14.53l29.97 17.78v32.46zm2.2-34.6l-32.93-19.55c-.46-.26-1.07-.26-1.53 0-.47.25-.78.76-.78 1.36v17.95c0 .52.3 1.03.77 1.3l17.26 10.07v17.1c0 .58.23 1 .7 1.27l14.97 9.04c.23.1.54.18.77.18.3 0 .53-.1.76-.18.46-.25.77-.76.77-1.28v-35.97c0-.6-.3-1.03-.77-1.3zm-37.52 62.55l-35.16-18.7v-41.7l29.96-17.78v14.53l-15.74 10.08c-.47.26-.7.77-.7 1.28v25.46c0 .6.3 1.12.76 1.37l20.18 10.4c.46.27.92.27 1.38.1l19.57-10.17 12 7.27-32.27 17.85zm36.08-19.14l-14.97-8.96c-.46-.25-1-.25-1.45 0l-19.65 10.1-18.65-9.76v-23.66l15.82-10.08c.4-.26.7-.77.7-1.3v-17.93c0-.6-.32-1.1-.77-1.36-.46-.25-1.07-.25-1.53 0l-32.95 19.57c-.46.27-.76.7-.76 1.3v43.4c0 .6.3 1.1.75 1.36l36.7 19.48c.22.1.45.17.68.17.23 0 .54-.07.76-.16l35.23-19.48c.46-.25.77-.77.77-1.28.07-.6-.23-1.02-.7-1.37z" stroke="#000" stroke-opacity="0" fill="#fff"/><use xlink:href="#f" transform="matrix(1,0,0,1,8978.127430357492,-2036.7258646272303) translate(9.986979166666657 18.489583333333332)"/><use xlink:href="#g" transform="matrix(1,0,0,1,8978.127430357492,-2036.7258646272303) translate(130.00651041666669 18.489583333333332)"/><path d="M9008.13-2392.6h120v120h-120v-120z" stroke="#000" stroke-opacity="0" fill="#7aa116"/><path d="M9099.36-2328.24l.57-4.1c5.33 3.18 5.4 4.53 5.4 4.53s-.96.74-5.97-.43zm-2.9-.84c-9.2-2.77-21.97-8.65-27.14-11.08v-.1c0-1.92-1.6-3.6-3.63-3.6s-3.65 1.68-3.65 3.6c0 2.03 1.62 3.63 3.64 3.63.88 0 1.68-.34 2.25-.84 6.13 2.85 18.8 8.65 28.1 11.42l-3.7 25.8v.24c0 2.26-10.1 6.37-26.5 6.37-16.64 0-26.82-4.1-26.82-6.38v-.26l-7.67-55.78c6.63 4.54 20.84 6.97 34.5 6.97 13.56 0 27.77-2.43 34.4-6.97l-3.8 26.97zm-65.9-32.84c.16-1.93 11.46-9.66 35.3-9.66 23.8 0 35.12 7.73 35.28 9.66v.67c-1.37 4.45-16.07 9.16-35.3 9.16-19.3 0-34-4.7-35.28-9.15v-.67zm73.57.1c0-5.22-14.94-12.78-38.28-12.78-23.34 0-38.28 7.56-38.28 12.76l.16 1.1 8.32 60.8c.16 6.82 18.33 9.34 29.8 9.34 14.2 0 29.3-3.28 29.48-9.33l3.63-25.37c2.02.5 3.63.76 4.93.76 1.76 0 2.97-.42 3.7-1.34.65-.67.8-1.5.65-2.44-.33-2.1-2.83-4.37-7.84-7.22l3.57-25.12.16-1.18z" stroke="#000" stroke-opacity="0" fill="#fff"/><use xlink:href="#h" transform="matrix(1,0,0,1,8978.127430357492,-2263.603364627231) translate(36.6579861111111 18.489583333333332)"/><use xlink:href="#i" transform="matrix(1,0,0,1,8978.127430357492,-2263.603364627231) translate(43.325737847222214 46.6015625)"/><path d="M9253.13-2165.73h120v120h-120v-120z" stroke="#000" stroke-opacity="0" fill="#c925d1"/><path d="M9331.27-2083.47c-5.04 4.04-15.55 6.22-25.56 6.22-10.07 0-20.58-2.18-25.55-6.22v8.15c0 4.12 10.44 8.65 25.56 8.65 15.06 0 25.57-4.53 25.57-8.65v-8.15zm0-15.45h2.95c0 1.76-.86 3.44-2.66 5.04 2.16 1.85 2.66 3.7 2.66 5.04v13.52c0 7.56-14.68 11.6-28.5 11.6-13.83 0-28.52-4.04-28.6-11.5v-13.62c0-1.35.58-3.2 2.67-5.04-2.1-1.93-2.67-3.7-2.67-5.04v-13.6c0-1.27.57-3.12 2.66-5.05-2.1-1.85-2.67-3.7-2.67-4.96v-13.61c0-7.56 14.76-11.6 28.58-11.6 7.8 0 15.35 1.26 20.6 3.45l-1.15 2.7c-4.9-2.03-12.02-3.2-19.44-3.2-15.1 0-25.55 4.53-25.55 8.65 0 4.03 10.44 8.56 25.56 8.56h1.16l.15 2.94c-.42.1-.86.1-1.3.1-10.07 0-20.58-2.2-25.55-6.23v8.15c0 1.6 1.6 2.93 2.95 3.77 4.03 2.6 11.23 4.37 19.3 4.7l-.15 3.03c-8.13-.42-15.26-2.1-19.87-4.7-1.15.83-2.23 2-2.23 3.27 0 4.12 10.44 8.65 25.56 8.65 1.45 0 2.96-.08 4.33-.17l.22 2.94c-1.44.16-3.03.16-4.54.16-10.07 0-20.58-2.1-25.55-6.13v8.15c0 1.6 1.6 2.94 2.95 3.78 4.6 2.94 13.25 4.8 22.6 4.8h.66v2.93h-.65c-9.5 0-18.13-1.78-23.4-4.72-1.07.84-2.15 2.02-2.15 3.28 0 4.03 10.44 8.57 25.56 8.57 15.06 0 25.57-4.46 25.57-8.57 0-1.26-1.08-2.44-2.23-3.28-.72.42-1.5.84-2.38 1.18l-1.15-2.77c1.1-.43 2.03-.94 2.82-1.44 1.3-.84 2.95-2.27 2.95-3.78zm12.82-21.76h-8.36c-.5 0-1-.25-1.3-.67-.3-.42-.3-.92-.15-1.43l5.1-12.77h-19.36l-9 17.9h9.57c.52 0 .95.25 1.24.58.3.42.36.93.22 1.35l-8.57 26.63 30.6-31.58zm4.6-.5l-37.52 38.72c-.28.34-.65.5-1.08.5-.2 0-.5-.08-.72-.25-.64-.34-.86-1-.72-1.7l9.94-30.8h-9.94c-.57 0-1-.27-1.3-.7-.28-.4-.28-1-.07-1.4l10.5-20.85c.22-.5.73-.84 1.3-.84h22.54c.5 0 .94.27 1.22.7.3.4.36.9.15 1.33l-5.1 12.77h9.72c.57 0 1.15.42 1.36.92.3.6.15 1.18-.28 1.6zm-66.4 46.45l1.52-2.6c1.8 1.1 4.32 2 7.2 2.68l-.8 2.94c-3.08-.85-5.82-1.85-7.9-3.03zm7.93-20.83l.8-2.86c-2.9-.67-5.4-1.6-7.2-2.7l-1.52 2.62c2.1 1.17 4.84 2.18 7.93 2.94zm-7.92-26.8l1.52-2.52c1.8 1 4.32 1.93 7.2 2.7l-.8 2.85c-3.08-.76-5.82-1.77-7.9-3.03z" stroke="#000" stroke-opacity="0" fill="#fff"/><use xlink:href="#c" transform="matrix(1,0,0,1,9223.127430357492,-2036.7258646272303) translate(29.990234374999986 18.489583333333332)"/><use xlink:href="#j" transform="matrix(1,0,0,1,9223.127430357492,-2036.7258646272303) translate(43.32573784722221 18.489583333333332)"/><path d="M8340.13-2105.73c0 36.44-29.57 66-66 66s-66-29.56-66-66c0-36.43 29.57-66 66-66s66 29.57 66 66z" stroke="#000" stroke-opacity="0" stroke-width="3.13" fill="#fe7070"/><path d="M8312.93-2137.4v49.5h-41.82l-.6-2.78-.64-2.57-.54-2.08h-5.9c2.8-2.28 4.58-5.74 4.58-9.6 0-6.84-5.52-12.38-12.36-12.38-6.85 0-12.37 5.54-12.37 12.37 0 3.86 1.8 7.32 4.6 9.6h-6.54l-.47 2.13-.54 2.52-.62 2.77h-4.5v-49.5h77.73z" stroke="#000" stroke-opacity="0" stroke-width="3.13" fill="#fff"/><path d="M8265.42-2104.93c0 5.32-4.32 9.63-9.64 9.63s-9.64-4.3-9.64-9.63c0-5.32 4.32-9.64 9.64-9.64s9.64 4.32 9.64 9.64zM8267.3-2092.53h-23.62l-6.12 27.46H8274l-6.7-27.46z" stroke="#000" stroke-opacity="0" stroke-width="3.13" fill="#fff"/><path d="M8324.02-2085.05l-2.7 11h-46.8l-.3-1.37-.3-1.38-1.4-5.5-.6-2.75h43.92v-55.02h-83.43v55.02h6.7l-.3 1.38-.3 1.37-1.2 5.5-.3 1.38-.3 1.37h-9.77l-2.7-11h5.5v-57.77h88.8v57.77h5.5z" stroke="#000" stroke-opacity="0" stroke-width="3.13" fill="#fff"/><path d="M8324.02-2085.05l-2.7 11h-46.8l-.3-1.37-.3-1.38-1.4-5.5-.6-2.75h43.92v-55.02h-83.43v55.02h6.7l-.3 1.38-.3 1.37-1.2 5.5-.3 1.38-.3 1.37h-9.77l-2.7-11h5.5v-57.77h88.8v57.77h5.5z" stroke="#000" stroke-opacity="0" stroke-width="3.13" fill="#fff"/><path d="M8357.62-2113a6 6 0 0 1 6-6h114.6a6 6 0 0 0 6-6v-1.3a2.3 2.3 0 0 1 4.02-1.53l15.87 17.64a6.67 6.67 0 0 1 0 8.93l-15.86 17.65a2.3 2.3 0 0 1-4.02-1.55v-1.28a6 6 0 0 0-6-6h-114.6a6 6 0 0 1-6-6z" stroke="#6f7681" stroke-width="2" fill="#fff"/><path d="M8278.58-1910.7l.76.18.83.06h2.97v1.95h-3.05l-1.06-.1-1.07-.24-.94-.4.75-1.8zm14.58 2.2h-6v-1.96h6zm10.03 0h-6.03v-1.96h6.02zm10 0h-6v-1.96h6zm10.04 0h-6.02v-1.96h6.02zm10.02 0h-6v-1.96h6zm10.03 0h-6.03v-1.96h6.02zm10.02 0h-6.02v-1.96h6.02zm10.02 0h-6v-1.96h6zm10.03 0h-6.02v-1.96h6.02zm10.02 0h-6.02v-1.96h6zm10.02 0h-6.02v-1.96h6.02zm10.02 0h-6v-1.96h6zm10.03 0h-6.02v-1.96h6.02zm10.02 0h-6.02v-1.96h6zm10.02 0h-6.02v-1.96h6.02zm10.02 0h-6v-1.96h6zm10.03 0h-6v-1.96h6zm10.03 0h-6.02v-1.96h6.02zm10.02 0h-6v-1.96h6zm10.03 0h-6.02v-1.96h6.02zm10.02 0h-6v-1.96h6zm10.03 0h-6.02v-1.96h6.02zm10.02 0h-6v-1.96h6zm10.03 0h-6v-1.96h6zm10.03 0h-6.02v-1.96h6.02zm10.02 0h-6v-1.96h6zm10.03 0h-6.02v-1.96h6.03zm10.02 0h-6v-1.96h6zm10.03 0h-6.02v-1.96h6.02zm290.74 0h-6v-1.96h6zm10.03 0h-6.02v-1.96h6.02zm10.02 0h-6v-1.96h6zm10.03 0h-6.02v-1.96h6.02zm10.02 0h-6v-1.96h6zm10.03 0h-6v-1.96h6zm10.03 0h-6.02v-1.96h6.02zm10.02 0h-6v-1.96h6zm10.03 0h-6.02v-1.96h6.03zm10.02 0h-6v-1.96h6zm10.03 0h-6.02v-1.96h6.02zm10.02 0h-6v-1.96h6zm10.03 0h-6v-1.96h6zm10.03 0h-6.02v-1.96h6.02zm10.02 0h-6v-1.96h6zm10.03 0h-6v-1.96h6zm10.03 0h-6v-1.96h6zm10.03 0h-6.02v-1.96h6.02zm10.02 0h-6v-1.96h6zm10.03 0h-6v-1.96h6zm10.12-.73l-.94.4-1.06.24-1.05.1h-3.05v-1.96h2.97l.8-.06.78-.18.8-.34zm-210.62.72h-.88v-1.96h.88zm-579.5-7.02l.07.83.18.77.33.8-1.8.75-.4-.94-.24-1.07-.1-1.04v-3h1.96zm794 .08l-.08 1.05-.26 1.08-.4.94-1.8-.75.34-.8.2-.76.05-.82v-2.94h1.95zm-794-6.93h-1.95v-5.9h1.95zm794-.07h-1.95v-5.96h1.95zm-794-9.77h-1.95v-5.92h1.95zm794-.18h-1.95v-5.97h1.95zm-794-9.67h-1.95v-5.9h1.95zm794-.27h-1.95v-5.97h1.95zm-794-9.57h-1.95v-5.9h1.95zm794-.37h-1.95v-5.96h1.95zm-794-9.46h-1.95v-5.9h1.95zm794-.48h-1.95v-5.97h1.95zm-794-9.38h-1.95v-5.9h1.95zm794-.57h-1.95v-5.96l1.95-.02zm-794-9.27h-1.95v-5.9h1.95zm794-.67h-1.95v-5.96h1.95zm-794-9.16h-1.95v-5.9h1.95zm794-.77h-1.95v-5.97h1.95zm-794-9.07h-1.95v-5.9h1.95zm794-.88h-1.95v-5.96h1.95zm-794-8.96h-1.95v-5.9h1.95zm0-9.84h-1.95v-2.95h1.95zm794-15.95h-1.95v-1.04h1.95zm0-5h-1.95v-3h1.95z" stroke="#000" stroke-width=".05"/><path d="M8281.63-2024.73h-15l7.5-13z"/><path d="M8283.32-2023.76h-18.38l9.2-15.92zm-15-1.95h11.62l-5.8-10.08z" stroke="#000" stroke-width=".05"/><path d="M9069.1-2044.7h-1.95v-1.03h1.95z"/><path stroke="#000" stroke-width=".05"/><use xlink:href="#k" transform="matrix(1,0,0,1,8575.007075609079,-1922.365521745286) translate(0 20.338541666666668)"/><use xlink:href="#l" transform="matrix(1,0,0,1,8575.007075609079,-1922.365521745286) translate(132.021484375 20.338541666666668)"/><path d="M8990.64-2105.73h-103.6" stroke="#6f7681" stroke-width="3" fill="none"/><path d="M9005.13-2105.73l-13 7.5v-15z" stroke="#6f7681" stroke-width="3" fill="#6f7681"/><path d="M8887.07-2104.25h-1.46l-.07-1.53.06-1.42h1.47z" stroke="#6f7681" stroke-width=".05" fill="#6f7681"/><path d="M9235.64-2105.73h-106" stroke="#6f7681" stroke-width="3" fill="none"/><path d="M9250.13-2105.73l-13 7.5v-15z" stroke="#6f7681" stroke-width="3" fill="#6f7681"/><path d="M9129.67-2104.25h-1.54v-2.95h1.54z" stroke="#6f7681" stroke-width=".05" fill="#6f7681"/><path d="M9069.6-2167.23h-2.95v-43.26h2.95z" stroke="#000" stroke-width=".05"/><path d="M9072.17-2262.6h-8.08l4.03-7z"/><path d="M9073.87-2262.6h-3.4l-2.34-4.05-2.34 4.05h-3.42l5.75-9.95z" stroke="#000" stroke-width=".05"/><path d="M9069.6-2165.73h-2.95v-1.53h2.95z"/><path stroke="#000" stroke-width=".05"/><path d="M8649.63-2105.73h103.6" stroke="#6f7681" stroke-width="3" fill="none"/><path d="M8649.67-2104.25h-1.54v-2.95h1.54z" stroke="#6f7681" stroke-width=".05" fill="#6f7681"/><path d="M8767.73-2105.73l-13 7.5v-15z" stroke="#6f7681" stroke-width="3" fill="#6f7681"/><path d="M8628.13-1966.6a6 6 0 0 1 6-6h168a6 6 0 0 1 6 6v28a6 6 0 0 1-6 6h-168a6 6 0 0 1-6-6z" fill="#edf5ff"/><path d="M8632.58-1972.38l.6-.15.95-.07h2m8 0h4m8 0h4m8 0h4m8 0h4m8 0h4m8 0h4m8 0h4m8 0h4m8 0h4m8 0h4m8 0h4m8 0h4m8 0h4m8 0h2l.94.07.6.15m4.24 4.23l.15.6.08.95v2.33m0 9.33v4.67m0 9.33v2.34l-.08.93-.14.62m-4.22 4.23l-.6.14-.95.08h-2m-8 0h-4m-8 0h-4m-8 0h-4m-8 0h-4m-8 0h-4m-8 0h-4m-8 0h-4m-8 0h-4m-8 0h-4m-8 0h-4m-8 0h-4m-8 0h-4m-8 0h-4m-8 0h-2l-.94-.08-.62-.14m-4.23-4.23l-.15-.62-.07-.93v-2.34m0-9.33v-4.67m0-9.33v-2.33l.07-.94.15-.6" stroke="#6db1ff" stroke-width="2" fill="none"/><g><use xlink:href="#m" transform="matrix(1,0,0,1,8633.127430357492,-1967.6033646272308) translate(15.655381944444443 20.416666666666668)"/><use xlink:href="#n" transform="matrix(1,0,0,1,8633.127430357492,-1967.6033646272308) translate(68.99739583333334 20.416666666666668)"/></g><path d="M8161.12-2225.73a6 6 0 0 1 6-6h228a6 6 0 0 1 6 6v48a6 6 0 0 1-6 6h-228a6 6 0 0 1-6-6z" fill="none"/><g><use xlink:href="#o" transform="matrix(1,0,0,1,8161.115993141553,-2231.7258646272303) translate(6.648220486111086 36.77625868055556)"/><use xlink:href="#p" transform="matrix(1,0,0,1,8161.115993141553,-2231.7258646272303) translate(140.00325520833334 36.77625868055556)"/></g><defs><path fill="#232f3e" d="M462-1121v384h621v228H462V0H167v-1349h939v228H462" id="q"/><path fill="#232f3e" d="M794-190h353V0H118v-190h395v-702H223v-190h571v892zM513-1277v-207h281v207H513" id="r"/><path fill="#232f3e" d="M794-190h353V0H118v-190h395v-1104H223v-190h571v1294" id="s"/><path fill="#232f3e" d="M1113-274C1038-96 884 20 626 20c-352 0-526-209-526-566 0-358 185-556 530-556 358 0 496 251 499 615H395c5 180 68 319 245 319 102 0 186-45 208-129zM857-663c-6-177-128-307-315-247-94 30-141 121-145 247h460" id="t"/><g id="a"><use transform="matrix(0.010850694444444444,0,0,0.010850694444444444,0,0)" xlink:href="#q"/><use transform="matrix(0.010850694444444444,0,0,0.010850694444444444,13.335503472222221,0)" xlink:href="#r"/><use transform="matrix(0.010850694444444444,0,0,0.010850694444444444,26.671006944444443,0)" xlink:href="#s"/><use transform="matrix(0.010850694444444444,0,0,0.010850694444444444,40.006510416666664,0)" xlink:href="#t"/></g><path fill="#232f3e" d="M1100-543c2 361-147 563-501 563-342 0-470-199-470-548v-821h295v818c3 172 13 322 183 320 173-2 198-150 198-330v-808h295v806" id="u"/><path fill="#232f3e" d="M427-171c3 195 2 397 2 596H148V-846c1-83-4-168-8-236h272c10 49 14 118 15 176h4c59-114 151-197 316-197 291 0 385 259 385 560 0 243-65 433-220 521-50 28-109 42-176 42-162-2-253-78-309-191zm69-661c-91 113-92 463-1 586 46 62 145 101 225 54 96-57 118-191 119-351 0-123-18-215-53-276-46-82-128-115-220-74-25 12-48 33-70 61" id="v"/><path fill="#232f3e" d="M616-1102c361 0 521 202 521 560 0 354-171 562-527 562C259 20 92-192 92-542c0-351 169-560 524-560zm-9 930c200-2 236-165 236-370 0-199-27-367-223-367-195 0-233 146-233 367 0 129 18 223 55 282s92 88 165 88" id="w"/><path fill="#232f3e" d="M775-193C708-75 621 20 439 20 226 20 106-93 106-306c0-251 170-341 417-346l223-4c4-143-12-264-148-264-103 0-141 58-150 153l-293-14c37-219 194-321 455-321 263 0 418 130 417 390v392c1 84 5 161 89 160 21 0 42-2 62-6v152c-57 15-108 27-180 26-145 0-202-73-217-205h-6zm-256 17c168 0 234-139 227-325-166 4-347-25-347 173 0 94 33 152 120 152" id="x"/><path fill="#232f3e" d="M802-909c-3-189-2-383-2-575h281v1248c-1 83 4 168 8 236H817c-9-50-14-117-15-176h-4C735-49 651 20 482 20 191 20 97-238 97-539c0-243 66-432 221-519 50-28 108-42 175-42 162 2 253 78 309 191zm-70 658c91-113 93-462 2-584-46-61-145-100-224-53-96 56-119 190-120 349 0 123 17 214 52 275 46 82 130 115 222 74 25-12 46-33 68-61" id="y"/><g id="b"><use transform="matrix(0.010850694444444444,0,0,0.010850694444444444,0,0)" xlink:href="#u"/><use transform="matrix(0.010850694444444444,0,0,0.010850694444444444,13.335503472222221,0)" xlink:href="#v"/><use transform="matrix(0.010850694444444444,0,0,0.010850694444444444,26.671006944444443,0)" xlink:href="#s"/><use transform="matrix(0.010850694444444444,0,0,0.010850694444444444,40.006510416666664,0)" xlink:href="#w"/><use transform="matrix(0.010850694444444444,0,0,0.010850694444444444,53.342013888888886,0)" xlink:href="#x"/><use transform="matrix(0.010850694444444444,0,0,0.010850694444444444,66.67751736111111,0)" xlink:href="#y"/></g><path d="M650-1214c-281 0-336 244-336 533 0 295 60 546 347 546 188 0 263-142 322-282l159 65C1058-155 935 20 659 20c-401 0-546-295-546-701 0-407 135-689 536-689 264 0 391 146 466 335l-168 65c-47-129-127-244-297-244" id="z"/><path d="M736-142h380V0H134v-142h422v-1200H267v-142h469v1342" id="A"/><path d="M615-1102c343 0 484 203 482 560-1 347-147 562-488 562-336 0-475-219-479-562-4-349 156-560 485-560zm-8 989c240 0 301-180 301-429 0-245-55-427-290-427-236 0-299 181-299 427 0 243 61 429 288 429" id="B"/><path d="M528 20c-247 0-343-132-343-381v-721h180v686c-4 177 45 284 224 277 194-8 279-136 279-336v-627h181c3 360-6 732 6 1082H885c-4-54-7-126-8-185h-3C809-64 714 20 528 20" id="C"/><path d="M865-914c-3-187-2-380-2-570h180v1261c0 76 1 155 6 223H877c-8-49-9-116-10-174h-5C801-44 708 26 530 26c-135 0-234-46-297-139s-95-232-95-419c0-377 131-566 392-566 176 0 271 63 335 184zm-286-51c-222 0-255 197-255 427 0 229 31 425 253 425 237 0 286-195 286-441 0-238-52-411-284-411" id="D"/><path d="M385-1193v494h676v158H385V0H194v-1349h891v156H385" id="E"/><path d="M839-1102c70 0 148 7 206 17v167c-112-18-268-36-363 15-129 69-208 203-208 395V0H294c-10-367 32-789-52-1082h171c21 75 41 161 48 250h5c67-152 152-270 373-270" id="F"/><path d="M706-1102c241 0 344 136 343 381V0H868v-695c1-168-57-273-220-268-190 6-283 138-283 336V0H185c-3-360 6-732-6-1082h170c4 54 7 126 8 185h3c63-121 164-204 346-205" id="G"/><path d="M682 16c-209 0-323-80-324-285v-671H190v-142h170l58-282h120v282h432v142H538v652c2 114 60 155 182 155 106 0 209-16 297-34v137C921-4 806 16 682 16" id="H"/><g id="d"><use transform="matrix(0.010850694444444444,0,0,0.010850694444444444,0,0)" xlink:href="#z"/><use transform="matrix(0.010850694444444444,0,0,0.010850694444444444,13.335503472222221,0)" xlink:href="#A"/><use transform="matrix(0.010850694444444444,0,0,0.010850694444444444,26.671006944444443,0)" xlink:href="#B"/><use transform="matrix(0.010850694444444444,0,0,0.010850694444444444,40.006510416666664,0)" xlink:href="#C"/><use transform="matrix(0.010850694444444444,0,0,0.010850694444444444,53.342013888888886,0)" xlink:href="#D"/><use transform="matrix(0.010850694444444444,0,0,0.010850694444444444,66.67751736111111,0)" xlink:href="#E"/><use transform="matrix(0.010850694444444444,0,0,0.010850694444444444,80.01302083333334,0)" xlink:href="#F"/><use transform="matrix(0.010850694444444444,0,0,0.010850694444444444,93.34852430555557,0)" xlink:href="#B"/><use transform="matrix(0.010850694444444444,0,0,0.010850694444444444,106.6840277777778,0)" xlink:href="#G"/><use transform="matrix(0.010850694444444444,0,0,0.010850694444444444,120.01953125000003,0)" xlink:href="#H"/></g><path d="M1034 0L896-382H333L196 0H0l510-1349h217L1228 0h-194zM847-531c-77-225-157-447-231-674-69 231-154 451-232 674h463" id="I"/><path d="M237 0v-1349h191v1193h672V0H237" id="J"/><path d="M802-711c201 25 350 118 350 331C1152-95 921 0 634 0H162v-1349c401 9 908-74 908 327 0 184-111 275-268 311zm-224-69c174-2 300-51 300-218 0-163-124-198-302-198H353v416h225zM353-153c281-2 612 44 606-244-5-271-329-233-606-234v478" id="K"/><g id="e"><use transform="matrix(0.010850694444444444,0,0,0.010850694444444444,0,0)" xlink:href="#I"/><use transform="matrix(0.010850694444444444,0,0,0.010850694444444444,13.335503472222221,0)" xlink:href="#J"/><use transform="matrix(0.010850694444444444,0,0,0.010850694444444444,26.671006944444443,0)" xlink:href="#K"/></g><path d="M622-1349c296 4 497 117 497 404 0 282-193 424-485 431H353V0H162v-1349h460zm-15 684c195-3 320-88 320-277 0-184-129-255-328-254H353v531h254" id="L"/><path d="M745-142h380V0H143v-142h422v-798H246v-142h499v940zM545-1292v-192h200v192H545" id="M"/><path d="M698-1104c312 3 392 244 392 558 0 315-82 566-392 566-169 0-277-65-331-184h-5c8 188 2 394 4 589H185V-858c0-76-1-156-6-224h175c6 52 9 120 10 178h4c58-122 150-202 330-200zm-49 991c225 0 255-203 255-433 0-225-32-419-253-419-236 0-285 192-285 441 0 237 53 411 283 411" id="N"/><path d="M617-1102c355 0 481 238 477 599H322c5 222 84 388 301 388 144 0 244-59 284-166l158 45C1002-72 854 20 623 20c-342 0-490-220-490-568 0-346 151-554 484-554zm291 461c-18-192-90-328-289-328-194 0-287 128-295 328h584" id="O"/><g id="f"><use transform="matrix(0.010850694444444444,0,0,0.010850694444444444,0,0)" xlink:href="#L"/><use transform="matrix(0.010850694444444444,0,0,0.010850694444444444,13.335503472222221,0)" xlink:href="#M"/><use transform="matrix(0.010850694444444444,0,0,0.010850694444444444,26.671006944444443,0)" xlink:href="#N"/><use transform="matrix(0.010850694444444444,0,0,0.010850694444444444,40.006510416666664,0)" xlink:href="#O"/><use transform="matrix(0.010850694444444444,0,0,0.010850694444444444,53.342013888888886,0)" xlink:href="#A"/><use transform="matrix(0.010850694444444444,0,0,0.010850694444444444,66.67751736111111,0)" xlink:href="#M"/><use transform="matrix(0.010850694444444444,0,0,0.010850694444444444,80.01302083333334,0)" xlink:href="#G"/><use transform="matrix(0.010850694444444444,0,0,0.010850694444444444,93.34852430555557,0)" xlink:href="#O"/></g><path d="M202-1349h823v156H709v1037h316V0H202v-156h316v-1037H202v-156" id="P"/><g id="g"><use transform="matrix(0.010850694444444444,0,0,0.010850694444444444,0,0)" xlink:href="#I"/><use transform="matrix(0.010850694444444444,0,0,0.010850694444444444,13.335503472222221,0)" xlink:href="#L"/><use transform="matrix(0.010850694444444444,0,0,0.010850694444444444,26.671006944444443,0)" xlink:href="#P"/></g><path d="M473-1349c438-1 655 221 652 661C1122-268 945-8 532 0H162v-1349h311zm42 1193c308-4 416-205 418-532 2-330-131-509-459-505H353v1037h162" id="Q"/><path d="M631 20c-350 0-501-215-501-562 0-355 162-560 502-560 250 0 399 118 446 323l-192 14c-23-124-109-196-262-196-242 0-305 171-305 415 1 245 61 427 304 427 151 0 248-77 267-215l190 12C1039-107 883 20 631 20" id="R"/><path d="M904-1102c199 0 220 177 220 381V0H956v-686c-3-114 0-215-60-264-70-33-125-4-158 71-26 56-39 140-39 252V0H531v-686c-3-114-1-215-61-264-78-41-136 24-157 84-24 69-39 159-39 259V0H105c-3-360 6-732-6-1082h149c6 50 3 123 8 175 36-100 83-195 216-195 135 0 166 79 196 196 42-105 93-196 236-196" id="S"/><g id="h"><use transform="matrix(0.010850694444444444,0,0,0.010850694444444444,0,0)" xlink:href="#Q"/><use transform="matrix(0.010850694444444444,0,0,0.010850694444444444,13.335503472222221,0)" xlink:href="#B"/><use transform="matrix(0.010850694444444444,0,0,0.010850694444444444,26.671006944444443,0)" xlink:href="#R"/><use transform="matrix(0.010850694444444444,0,0,0.010850694444444444,40.006510416666664,0)" xlink:href="#C"/><use transform="matrix(0.010850694444444444,0,0,0.010850694444444444,53.342013888888886,0)" xlink:href="#S"/><use transform="matrix(0.010850694444444444,0,0,0.010850694444444444,66.67751736111111,0)" xlink:href="#O"/><use transform="matrix(0.010850694444444444,0,0,0.010850694444444444,80.01302083333334,0)" xlink:href="#G"/><use transform="matrix(0.010850694444444444,0,0,0.010850694444444444,93.34852430555557,0)" xlink:href="#H"/></g><path d="M614-1226c-167 1-283 53-283 213 0 183 186 193 334 234 230 63 463 120 463 409 0 286-219 387-518 390C309 23 131-98 79-338l185-37c34 165 149 248 351 246 184-2 324-58 324-238 0-203-207-221-372-266-210-57-422-111-422-377 0-267 201-356 470-360 279-5 430 101 480 324l-188 33c-28-141-121-215-293-213" id="T"/><path d="M1000-272c3 95 12 159 101 161 21 0 41-3 59-7V-6c-44 10-86 16-139 16-141 2-191-84-197-217h-6C748-76 648 20 446 20c-207 0-318-120-318-322 0-266 194-348 454-354l236-4c12-191-40-305-222-305-140 0-220 47-232 172l-188-17c33-204 181-292 423-292 255 0 401 118 401 364v466zm-683-27c0 109 63 184 175 182 166-3 259-96 306-217 24-65 20-120 20-200-232 7-501-28-501 235" id="U"/><path d="M1048-32c-2 300-135 456-433 456-222-1-358-88-400-267l184-25c22 99 100 157 222 156 184-2 248-125 248-315 0-64 3-133-2-194C807-100 706-13 524-12c-306 0-381-228-381-537 0-318 85-550 400-550 164 0 271 83 325 202h3c1-60 3-134 12-185h171c-13 339-4 702-6 1050zM585-145c210-8 284-178 284-406 0-192-52-331-177-392-33-16-69-22-104-22-223 2-259 184-259 414 0 229 31 415 256 406" id="V"/><g id="i"><use transform="matrix(0.010850694444444444,0,0,0.010850694444444444,0,0)" xlink:href="#T"/><use transform="matrix(0.010850694444444444,0,0,0.010850694444444444,13.335503472222221,0)" xlink:href="#H"/><use transform="matrix(0.010850694444444444,0,0,0.010850694444444444,26.671006944444443,0)" xlink:href="#B"/><use transform="matrix(0.010850694444444444,0,0,0.010850694444444444,40.006510416666664,0)" xlink:href="#F"/><use transform="matrix(0.010850694444444444,0,0,0.010850694444444444,53.342013888888886,0)" xlink:href="#U"/><use transform="matrix(0.010850694444444444,0,0,0.010850694444444444,66.67751736111111,0)" xlink:href="#V"/><use transform="matrix(0.010850694444444444,0,0,0.010850694444444444,80.01302083333334,0)" xlink:href="#O"/></g><path d="M168 279c222 39 310-114 368-290L66-1082h192c120 299 249 590 362 896 115-301 235-597 351-896h190L705 0c-65 164-130 320-275 396-67 36-177 35-262 18V279" id="W"/><g id="j"><use transform="matrix(0.010850694444444444,0,0,0.010850694444444444,0,0)" xlink:href="#Q"/><use transform="matrix(0.010850694444444444,0,0,0.010850694444444444,13.335503472222221,0)" xlink:href="#W"/><use transform="matrix(0.010850694444444444,0,0,0.010850694444444444,26.671006944444443,0)" xlink:href="#G"/><use transform="matrix(0.010850694444444444,0,0,0.010850694444444444,40.006510416666664,0)" xlink:href="#U"/><use transform="matrix(0.010850694444444444,0,0,0.010850694444444444,53.342013888888886,0)" xlink:href="#S"/><use transform="matrix(0.010850694444444444,0,0,0.010850694444444444,66.67751736111111,0)" xlink:href="#B"/><use transform="matrix(0.010850694444444444,0,0,0.010850694444444444,80.01302083333334,0)" xlink:href="#Q"/><use transform="matrix(0.010850694444444444,0,0,0.010850694444444444,93.34852430555557,0)" xlink:href="#K"/></g><path fill="#333" d="M677 91c1 136 41 195 171 195h213v139H796c-186-8-294-116-294-303v-351c-3-164-120-222-275-232v-137c155-10 275-69 275-231v-352c6-189 106-303 294-303h265v139H848c-126-3-171 67-171 195v346c-5 158-108 234-231 274 128 36 231 115 231 274V91" id="X"/><path fill="#333" d="M873-819c-18-114-119-146-250-146-163 0-245 50-245 151 0 151 170 148 294 185 182 54 388 94 388 320 0 240-189 325-439 329-245 4-410-69-454-268l159-31c24 133 136 168 295 165 144-2 270-31 270-171 0-164-195-160-331-202-167-52-350-87-350-299 0-218 173-315 413-313 220 2 373 77 412 260" id="Y"/><path fill="#333" d="M682 16c-209 0-323-80-324-285v-671H190v-142h170l58-282h120v282h432v142H538v652c2 114 60 155 182 155 106 0 209-16 297-34v137C921-4 806 16 682 16" id="Z"/><path fill="#333" d="M1000-272c3 95 12 159 101 161 21 0 41-3 59-7V-6c-44 10-86 16-139 16-141 2-191-84-197-217h-6C748-76 648 20 446 20c-207 0-318-120-318-322 0-266 194-348 454-354l236-4c12-191-40-305-222-305-140 0-220 47-232 172l-188-17c33-204 181-292 423-292 255 0 401 118 401 364v466zm-683-27c0 109 63 184 175 182 166-3 259-96 306-217 24-65 20-120 20-200-232 7-501-28-501 235" id="aa"/><path fill="#333" d="M528 20c-247 0-343-132-343-381v-721h180v686c-4 177 45 284 224 277 194-8 279-136 279-336v-627h181c3 360-6 732 6 1082H885c-4-54-7-126-8-185h-3C809-64 714 20 528 20" id="ab"/><path fill="#333" d="M496 0v-299h235V0H496zm0-783v-299h235v299H496" id="ac"/><g id="k"><use transform="matrix(0.01193576388888889,0,0,0.01193576388888889,0,0)" xlink:href="#X"/><use transform="matrix(0.01193576388888889,0,0,0.01193576388888889,14.669053819444446,0)" xlink:href="#Y"/><use transform="matrix(0.01193576388888889,0,0,0.01193576388888889,29.338107638888893,0)" xlink:href="#Z"/><use transform="matrix(0.01193576388888889,0,0,0.01193576388888889,44.00716145833334,0)" xlink:href="#aa"/><use transform="matrix(0.01193576388888889,0,0,0.01193576388888889,58.676215277777786,0)" xlink:href="#Z"/><use transform="matrix(0.01193576388888889,0,0,0.01193576388888889,73.34526909722223,0)" xlink:href="#ab"/><use transform="matrix(0.01193576388888889,0,0,0.01193576388888889,88.01432291666667,0)" xlink:href="#Y"/><use transform="matrix(0.01193576388888889,0,0,0.01193576388888889,102.68337673611111,0)" xlink:href="#ac"/></g><path fill="#333" d="M908-845H766l-40-639h224zm-449 0H318l-41-639h224" id="ad"/><path fill="#333" d="M698-1104c312 3 392 244 392 558 0 315-82 566-392 566-169 0-277-65-331-184h-5c8 188 2 394 4 589H185V-858c0-76-1-156-6-224h175c6 52 9 120 10 178h4c58-122 150-202 330-200zm-49 991c225 0 255-203 255-433 0-225-32-419-253-419-236 0-285 192-285 441 0 237 53 411 283 411" id="ae"/><path fill="#333" d="M617-1102c355 0 481 238 477 599H322c5 222 84 388 301 388 144 0 244-59 284-166l158 45C1002-72 854 20 623 20c-342 0-490-220-490-568 0-346 151-554 484-554zm291 461c-18-192-90-328-289-328-194 0-287 128-295 328h584" id="af"/><path fill="#333" d="M706-1102c241 0 344 136 343 381V0H868v-695c1-168-57-273-220-268-190 6-283 138-283 336V0H185c-3-360 6-732-6-1082h170c4 54 7 126 8 185h3c63-121 164-204 346-205" id="ag"/><path fill="#333" d="M865-914c-3-187-2-380-2-570h180v1261c0 76 1 155 6 223H877c-8-49-9-116-10-174h-5C801-44 708 26 530 26c-135 0-234-46-297-139s-95-232-95-419c0-377 131-566 392-566 176 0 271 63 335 184zm-286-51c-222 0-255 197-255 427 0 229 31 425 253 425 237 0 286-195 286-441 0-238-52-411-284-411" id="ah"/><path fill="#333" d="M745-142h380V0H143v-142h422v-798H246v-142h499v940zM545-1292v-192h200v192H545" id="ai"/><path fill="#333" d="M1048-32c-2 300-135 456-433 456-222-1-358-88-400-267l184-25c22 99 100 157 222 156 184-2 248-125 248-315 0-64 3-133-2-194C807-100 706-13 524-12c-306 0-381-228-381-537 0-318 85-550 400-550 164 0 271 83 325 202h3c1-60 3-134 12-185h171c-13 339-4 702-6 1050zM585-145c210-8 284-178 284-406 0-192-52-331-177-392-33-16-69-22-104-22-223 2-259 184-259 414 0 229 31 415 256 406" id="aj"/><path fill="#333" d="M726 122c-7 187-108 303-294 303H167V286h213c129-2 172-59 172-195v-347c5-160 106-236 230-276-125-36-230-116-230-272v-346c2-128-45-195-172-195H167v-139h265c187 7 294 114 294 303v352c4 162 120 221 275 231v137c-155 10-275 68-275 232v351" id="ak"/><g id="l"><use transform="matrix(0.01193576388888889,0,0,0.01193576388888889,0,0)" xlink:href="#ad"/><use transform="matrix(0.01193576388888889,0,0,0.01193576388888889,14.669053819444446,0)" xlink:href="#ae"/><use transform="matrix(0.01193576388888889,0,0,0.01193576388888889,29.338107638888893,0)" xlink:href="#af"/><use transform="matrix(0.01193576388888889,0,0,0.01193576388888889,44.00716145833334,0)" xlink:href="#ag"/><use transform="matrix(0.01193576388888889,0,0,0.01193576388888889,58.676215277777786,0)" xlink:href="#ah"/><use transform="matrix(0.01193576388888889,0,0,0.01193576388888889,73.34526909722223,0)" xlink:href="#ai"/><use transform="matrix(0.01193576388888889,0,0,0.01193576388888889,88.01432291666667,0)" xlink:href="#ag"/><use transform="matrix(0.01193576388888889,0,0,0.01193576388888889,102.68337673611111,0)" xlink:href="#aj"/><use transform="matrix(0.01193576388888889,0,0,0.01193576388888889,117.35243055555557,0)" xlink:href="#ad"/><use transform="matrix(0.01193576388888889,0,0,0.01193576388888889,132.021484375,0)" xlink:href="#ak"/></g><path d="M875 0v-623H353V0H162v-1349h191v566h522v-566h191V0H875" id="al"/><path d="M709-1193V0H519v-1193H76v-156h1076v156H709" id="am"/><g id="m"><use transform="matrix(0.008680555555555556,0,0,0.008680555555555556,0,0)" xlink:href="#al"/><use transform="matrix(0.008680555555555556,0,0,0.008680555555555556,10.668402777777779,0)" xlink:href="#am"/><use transform="matrix(0.008680555555555556,0,0,0.008680555555555556,21.336805555555557,0)" xlink:href="#am"/><use transform="matrix(0.008680555555555556,0,0,0.008680555555555556,32.005208333333336,0)" xlink:href="#L"/></g><path d="M1121-976c0 225-142 341-344 379L1177 0H957L591-575H353V0H162v-1349h482c281 3 477 100 477 373zM633-726c181-1 296-73 296-247 0-149-101-223-304-223H353v470h280" id="an"/><path d="M873-819c-18-114-119-146-250-146-163 0-245 50-245 151 0 151 170 148 294 185 182 54 388 94 388 320 0 240-189 325-439 329-245 4-410-69-454-268l159-31c24 133 136 168 295 165 144-2 270-31 270-171 0-164-195-160-331-202-167-52-350-87-350-299 0-218 173-315 413-313 220 2 373 77 412 260" id="ao"/><g id="n"><use transform="matrix(0.008680555555555556,0,0,0.008680555555555556,0,0)" xlink:href="#an"/><use transform="matrix(0.008680555555555556,0,0,0.008680555555555556,10.668402777777779,0)" xlink:href="#O"/><use transform="matrix(0.008680555555555556,0,0,0.008680555555555556,21.336805555555557,0)" xlink:href="#ao"/><use transform="matrix(0.008680555555555556,0,0,0.008680555555555556,32.005208333333336,0)" xlink:href="#N"/><use transform="matrix(0.008680555555555556,0,0,0.008680555555555556,42.673611111111114,0)" xlink:href="#B"/><use transform="matrix(0.008680555555555556,0,0,0.008680555555555556,53.34201388888889,0)" xlink:href="#G"/><use transform="matrix(0.008680555555555556,0,0,0.008680555555555556,64.01041666666667,0)" xlink:href="#ao"/><use transform="matrix(0.008680555555555556,0,0,0.008680555555555556,74.67881944444446,0)" xlink:href="#O"/></g><path d="M604-135c236 0 291-142 291-376v-838h190v859c5 340-142 510-480 510-326 0-463-164-463-492v-877h191v851c-3 222 46 363 271 363" id="ap"/><g id="o"><use transform="matrix(0.010850694444444444,0,0,0.010850694444444444,0,0)" xlink:href="#ap"/><use transform="matrix(0.010850694444444444,0,0,0.010850694444444444,13.335503472222221,0)" xlink:href="#N"/><use transform="matrix(0.010850694444444444,0,0,0.010850694444444444,26.671006944444443,0)" xlink:href="#A"/><use transform="matrix(0.010850694444444444,0,0,0.010850694444444444,40.006510416666664,0)" xlink:href="#B"/><use transform="matrix(0.010850694444444444,0,0,0.010850694444444444,53.342013888888886,0)" xlink:href="#U"/><use transform="matrix(0.010850694444444444,0,0,0.010850694444444444,66.67751736111111,0)" xlink:href="#D"/><use transform="matrix(0.010850694444444444,0,0,0.010850694444444444,80.01302083333334,0)" xlink:href="#M"/><use transform="matrix(0.010850694444444444,0,0,0.010850694444444444,93.34852430555557,0)" xlink:href="#G"/><use transform="matrix(0.010850694444444444,0,0,0.010850694444444444,106.6840277777778,0)" xlink:href="#V"/></g><path d="M839-1335c-182-6-269 67-259 253h491v142H580V0H400v-940H138v-142h262c-15-293 132-408 418-402 94 2 200 7 281 21v145c-75-10-177-14-260-17" id="aq"/><path d="M496 0v-299h235V0H496" id="ar"/><g id="p"><use transform="matrix(0.010850694444444444,0,0,0.010850694444444444,0,0)" xlink:href="#aq"/><use transform="matrix(0.010850694444444444,0,0,0.010850694444444444,13.335503472222221,0)" xlink:href="#M"/><use transform="matrix(0.010850694444444444,0,0,0.010850694444444444,26.671006944444443,0)" xlink:href="#A"/><use transform="matrix(0.010850694444444444,0,0,0.010850694444444444,40.006510416666664,0)" xlink:href="#O"/><use transform="matrix(0.010850694444444444,0,0,0.010850694444444444,53.342013888888886,0)" xlink:href="#ar"/><use transform="matrix(0.010850694444444444,0,0,0.010850694444444444,66.67751736111111,0)" xlink:href="#ar"/><use transform="matrix(0.010850694444444444,0,0,0.010850694444444444,80.01302083333334,0)" xlink:href="#ar"/></g></defs></g></svg>