<svg xmlns="http://www.w3.org/2000/svg" xmlns:xlink="http://www.w3.org/1999/xlink" xmlns:lucid="lucid" width="1130.45" height="580"><g transform="translate(10029.24202498214 -5700)" lucid:page-tab-id="0_0"><path d="M-23500-12000h44500v27000h-44500z" fill="#fff"/><path d="M-10029.24 5730a30 30 0 0 1 30-30h1070.45a30 30 0 0 1 30 30v520a30 30 0 0 1-30 30h-1070.44a30 30 0 0 1-30-30z" fill="#fff"/><path d="M-9984.02 5980.48a6 6 0 0 1 6-6h1028a6 6 0 0 1 6 6v248a6 6 0 0 1-6 6h-1028a6 6 0 0 1-6-6z" stroke="#c64aae" stroke-width="4" fill="#fbf0ff"/><path d="M-9544.67 5757.36h150.55v150.56h-150.55v-150.56z" stroke="#000" stroke-opacity="0" fill="#c925d1"/><path d="M-9459.7 5791.35h-5.7v-3.76h5.68v-5.7h3.72v5.7h5.67v3.75h-5.67v5.7h-3.72v-5.7zm22.58 20.94h-5.68v-3.77h5.68v-5.7h3.82v5.7h5.68v3.76h-5.68v5.68h-3.82v-5.7zm-9.82 60.05c-3.6-9.25-11.9-17.58-20.96-21.24 9.06-3.55 17.35-11.98 20.96-21.13 3.6 9.15 11.9 17.58 21.06 21.14-9.17 3.67-17.46 12-21.06 21.25zm30.34-23.07c-13.32 0-28.5-15.24-28.5-28.66 0-1.02-.75-1.83-1.84-1.83-1 0-1.86.8-1.86 1.82 0 13.4-15.17 28.66-28.38 28.66-1.1 0-1.96.8-1.96 1.83 0 1.13.87 1.94 1.96 1.94 13.2 0 28.38 15.24 28.38 28.56 0 1.1.87 1.93 1.86 1.93 1.1 0 1.85-.82 1.85-1.93 0-13.32 15.18-28.56 28.5-28.56.98 0 1.86-.8 1.86-1.93 0-1-.88-1.82-1.86-1.82zm-103.48-37.4c5.46 3.96 16.16 6.1 26.42 6.1 10.15 0 20.85-2.14 26.4-6.1v18.1c-2.72 3.65-12.76 7.3-26.07 7.3-15.28 0-26.75-4.87-26.75-9.14v-16.26zm26.42-14.84c16.37 0 26.4 4.98 26.4 8.64 0 3.56-10.03 8.54-26.4 8.54-16.37 0-26.42-4.98-26.42-8.54 0-3.66 10.05-8.64 26.42-8.64zm26.4 71.34c0 4.37-11.34 9.25-26.4 9.25-15.17 0-26.42-4.88-26.42-9.25v-12.2c5.57 4.28 16.38 6.5 26.85 6.5 7.32 0 14.3-1 19.76-2.83l-1.2-3.66c-5.13 1.72-11.68 2.73-18.56 2.73-15.4 0-26.85-4.88-26.85-9.14v-15.26c5.46 4.27 16.38 6.5 26.75 6.5 11.13 0 20.74-2.33 26.08-6v5.7h3.72v-35.06c0-8.03-15.5-12.4-30.13-12.4-14.08 0-28.93 3.97-30.13 11.4l-.1-.02v63.72c0 8.44 15.5 13 30.24 13 14.63 0 30.13-4.56 30.13-13v-6.7h-3.72v6.7z" stroke="#000" stroke-opacity="0" fill="#fff"/><path d="M-9867.8 6019.58h163.45v143.02h-163.44z" fill-opacity="0"/><path d="M-9712.68 6121.7c2.45 0 4.25.85 5.72 2.57 1.8 1.57 2.6 3.43 2.6 5.72v24.3c0 2.3-.8 4.3-2.6 6-1.47 1.58-3.27 2.3-5.72 2.3h-24.2c-2.44 0-4.4-.72-6.04-2.3-1.47-1.7-2.3-3.7-2.3-6V6130c0-2.3.83-4.16 2.3-5.73 1.63-1.72 3.6-2.57 6.05-2.57h6.05v-12.16c0-1.43-.82-2.15-2.3-2.15h-44.6v14.3h3.74c2.46 0 4.25.85 5.73 2.57 1.8 1.57 2.6 3.43 2.6 5.72v24.3c0 2.3-.8 4.3-2.6 6-1.48 1.58-3.27 2.3-5.73 2.3h-24.18c-2.46 0-4.42-.72-6.05-2.3-1.48-1.7-2.3-3.7-2.3-6V6130c0-2.3.82-4.16 2.3-5.73 1.62-1.72 3.58-2.57 6.04-2.57h3.75v-14.3h-44.63c-1.47 0-2.28.7-2.28 2.14v12.16h6.03c2.45 0 4.25.85 5.72 2.57 1.8 1.57 2.62 3.43 2.62 5.72v24.3c0 2.3-.82 4.3-2.62 6-1.47 1.58-3.27 2.3-5.72 2.3h-24.2c-2.44 0-4.4-.72-6.03-2.3-1.48-1.7-2.3-3.7-2.3-6V6130c0-2.3.82-4.16 2.3-5.73 1.63-1.72 3.6-2.57 6.04-2.57h1.96v-12.16c0-5 1.8-9.44 5.4-13.02 3.6-3.57 8-5.43 13.08-5.43h44.6v-20.46h-24.17c-2.45 0-4.4-.72-6.04-2.15-1.47-1.72-2.3-3.87-2.3-6.15v-34.47c0-2.3.83-4.3 2.3-5.72 1.63-1.72 3.6-2.58 6.05-2.58h65.06c2.45 0 4.25.86 5.72 2.58 1.8 1.43 2.6 3.43 2.6 5.72v34.47c0 2.28-.8 4.43-2.6 6.14-1.47 1.43-3.27 2.14-5.72 2.14h-24.2v20.45h44.63c5.05 0 9.47 1.85 13.06 5.42 3.6 3.58 5.56 8 5.56 13.02v12.16h1.8zm-97.9-67.36h49.03v-18.45h-49.04v18.44zm-32.7 83.66h-8.17v8.3h8.18v-8.3zm61.3 0h-8.18v8.3h8.18v-8.3zm61.3 0h-8.18v8.3h8.17v-8.3z" fill="url(#a)"/><use xlink:href="#b" transform="matrix(1,0,0,1,-9897.791722623473,6171.597853189966) translate(65.32573784722221 25.885416666666668)"/><path d="M-9193.14 6051.35h-28.9v-31.77h28.9zm-22.8-6.1h16.7v-19.57h-16.7zM-9193.14 6088.4h-28.9v-31.72h28.9zm-22.8-6.08h16.7v-19.55h-16.7zM-9193.14 6125.5h-28.9v-31.73h28.9zm-22.8-6.1h16.7v-19.54h-16.7zM-9193.14 6162.6h-28.9v-31.77h28.9zm-22.8-6.1h16.7v-19.57h-16.7zM-9158.9 6051.35h-28.92v-31.77h28.9zm-22.82-6.1h16.7v-19.57h-16.7zM-9158.9 6088.4h-28.92v-31.72h28.9zm-22.82-6.08h16.7v-19.55h-16.7zM-9158.9 6125.5h-28.92v-31.73h28.9zm-22.82-6.1h16.7v-19.54h-16.7zM-9158.9 6162.6h-28.92v-31.77h28.9zm-22.82-6.1h16.7v-19.57h-16.7zM-9079.03 6051.35h-74.55v-31.77h74.55zm-68.44-6.1h62.32v-19.57h-62.32zM-9079.03 6088.4h-74.55v-31.72h74.55zm-68.44-6.08h62.32v-19.55h-62.32zM-9079.03 6125.5h-74.55v-31.73h74.55zm-68.44-6.1h62.32v-19.54h-62.32zM-9079.03 6162.6h-74.55v-31.77h74.55zm-68.44-6.1h62.32v-19.57h-62.32z" stroke="#fff" stroke-opacity="0" fill="#1071e5"/><path d="M-9219.37 6022.45h137.25v136.85h-137.25v-136.85z" stroke="#fff" stroke-opacity="0" stroke-width=".4" fill="#fff" fill-opacity="0"/><use xlink:href="#c" transform="matrix(1,0,0,1,-9252.047045160722,6171.597853189966) translate(73.99544270833333 25.885416666666668)"/><path d="M-9475.1 6098.1a18 18 0 0 1 11.4 0l80.55 26.85a2 2 0 0 1 0 3.8l-80.55 26.84a18 18 0 0 1-11.4 0l-80.54-26.86a2 2 0 0 1 0-3.8z" stroke="#fc9432" stroke-width="7" fill="#fff"/><path d="M-9475.1 6057.23a18 18 0 0 1 11.4 0l80.55 26.86a2 2 0 0 1 0 3.78l-80.55 26.85a18 18 0 0 1-11.4 0l-80.54-26.85a2 2 0 0 1 0-3.8z" stroke="#fc9432" stroke-width="7" fill="#fff"/><path d="M-9475.1 6016.37a18 18 0 0 1 11.4 0l80.55 26.86a2 2 0 0 1 0 3.8l-80.55 26.84a18 18 0 0 1-11.4 0l-80.54-26.85a2 2 0 0 1 0-3.8z" stroke="#fc9432" stroke-width="7" fill="#fff"/><path d="M-9483.8 6085.98c0 2.2-5.72 3.96-12.78 3.96-7.05 0-12.77-1.77-12.77-3.96 0-2.18 5.72-3.95 12.77-3.95 7.06 0 12.77 1.77 12.77 3.95z" stroke="#e24adb" stroke-width="2" fill="url(#d)"/><path d="M-9421.25 6125.96c0 2.15-5.6 3.9-12.5 3.9-6.92 0-12.52-1.75-12.52-3.9s5.6-3.9 12.5-3.9c6.92 0 12.52 1.75 12.52 3.9z" stroke="#47b0e5" stroke-width="2" fill="url(#e)"/><path d="M-9427 6085.98c0 2.2-5.7 3.96-12.76 3.96-7.05 0-12.77-1.77-12.77-3.96 0-2.18 5.72-3.95 12.77-3.95 7.06 0 12.77 1.77 12.77 3.95z" stroke="#7ae266" stroke-width="2" fill="url(#f)"/><path d="M-9456.53 6137.75c0 1.95-5.76 3.54-12.87 3.54-7.1 0-12.86-1.6-12.86-3.55 0-1.96 5.76-3.54 12.86-3.54s12.87 1.6 12.87 3.55z" stroke="#e55050" stroke-width="2" fill="url(#g)"/><path d="M-9452.93 6045.12c0 2.03-7.8 3.68-17.42 3.68-9.63 0-17.43-1.65-17.43-3.68 0-2.03 7.8-3.67 17.43-3.67 9.62 0 17.42 1.64 17.42 3.67z" stroke="#efd95d" stroke-width="2" fill="url(#h)"/><path d="M-9490.58 6125.96c0 2.15-5.6 3.9-12.5 3.9-6.92 0-12.52-1.75-12.52-3.9s5.6-3.9 12.5-3.9c6.92 0 12.52 1.75 12.52 3.9z" stroke="#49c1a1" stroke-width="2" fill="url(#i)"/><path d="M-9592.94 6163.5a6 6 0 0 1 6-6h233.17a6 6 0 0 1 6 6v49.28a6 6 0 0 1-6 6h-233.17a6 6 0 0 1-6-6z" fill="none"/><use xlink:href="#j" transform="matrix(1,0,0,1,-9592.937820563528,6157.490211824852) translate(85.66059027777777 40.48676215277778)"/><path d="M-9786.2 6018.78v-.03a2.5 2.5 0 0 1 2.5-2.5 2.5 2.5 0 0 1 2.5 2.5 2.5 2.5 0 0 1-2.5 2.5 2.5 2.5 0 0 1-2.5-2.5v-.02m9.44-3.3a2.5 2.5 0 0 1 2.5-2.5 2.5 2.5 0 0 1 2.5 2.5 2.5 2.5 0 0 1-2.5 2.5 2.5 2.5 0 0 1-2.5-2.5v-.04m9.45-3.3a2.5 2.5 0 0 1 2.5-2.5 2.5 2.5 0 0 1 2.5 2.5 2.5 2.5 0 0 1-2.5 2.5 2.5 2.5 0 0 1-2.5-2.5v-.04m9.45-3.28v-.03a2.5 2.5 0 0 1 2.5-2.5 2.5 2.5 0 0 1 2.5 2.5 2.5 2.5 0 0 1-2.5 2.5 2.5 2.5 0 0 1-2.5-2.5v-.02m9.45-3.3a2.5 2.5 0 0 1 2.5-2.5 2.5 2.5 0 0 1 2.5 2.5 2.5 2.5 0 0 1-2.5 2.5 2.5 2.5 0 0 1-2.5-2.5v-.04m9.45-3.3v-.02a2.5 2.5 0 0 1 2.5-2.5 2.5 2.5 0 0 1 2.5 2.5 2.5 2.5 0 0 1-2.5 2.5 2.5 2.5 0 0 1-2.5-2.5v-.02m9.46-3.28v-.03a2.5 2.5 0 0 1 2.5-2.5 2.5 2.5 0 0 1 2.5 2.5 2.5 2.5 0 0 1-2.5 2.5 2.5 2.5 0 0 1-2.5-2.5v-.02m9.46-3.3a2.5 2.5 0 0 1 2.5-2.5 2.5 2.5 0 0 1 2.5 2.5 2.5 2.5 0 0 1-2.5 2.5 2.5 2.5 0 0 1-2.5-2.5v-.04m9.46-3.3v-.02a2.5 2.5 0 0 1 2.5-2.5 2.5 2.5 0 0 1 2.5 2.5 2.5 2.5 0 0 1-2.5 2.5 2.5 2.5 0 0 1-2.5-2.5v-.02m9.45-3.28v-.03a2.5 2.5 0 0 1 2.5-2.5 2.5 2.5 0 0 1 2.5 2.5 2.5 2.5 0 0 1-2.5 2.5 2.5 2.5 0 0 1-2.5-2.5v-.02m9.45-3.3a2.5 2.5 0 0 1 2.5-2.5 2.5 2.5 0 0 1 2.5 2.5 2.5 2.5 0 0 1-2.5 2.5 2.5 2.5 0 0 1-2.5-2.5v-.04m9.45-3.3v-.02a2.5 2.5 0 0 1 2.5-2.5 2.5 2.5 0 0 1 2.5 2.5 2.5 2.5 0 0 1-2.5 2.5 2.5 2.5 0 0 1-2.5-2.5v-.02m9.46-3.28v-.03a2.5 2.5 0 0 1 2.5-2.5 2.5 2.5 0 0 1 2.5 2.5 2.5 2.5 0 0 1-2.5 2.5 2.5 2.5 0 0 1-2.5-2.5v-.02m9.45-3.3a2.5 2.5 0 0 1 2.5-2.5 2.5 2.5 0 0 1 2.5 2.5 2.5 2.5 0 0 1-2.5 2.5 2.5 2.5 0 0 1-2.5-2.5v-.04m9.45-3.3v-.02a2.5 2.5 0 0 1 2.5-2.5 2.5 2.5 0 0 1 2.5 2.5 2.5 2.5 0 0 1-2.5 2.5 2.5 2.5 0 0 1-2.5-2.5v-.02m9.46-3.3a2.5 2.5 0 0 1 2.5-2.5 2.5 2.5 0 0 1 2.5 2.5 2.5 2.5 0 0 1-2.5 2.5 2.5 2.5 0 0 1-2.5-2.5v-.03m9.44-3.3a2.5 2.5 0 0 1 2.5-2.5 2.5 2.5 0 0 1 2.5 2.5 2.5 2.5 0 0 1-2.5 2.5 2.5 2.5 0 0 1-2.5-2.5v-.04m9.45-3.3v-.02a2.5 2.5 0 0 1 2.5-2.5 2.5 2.5 0 0 1 2.5 2.5 2.5 2.5 0 0 1-2.5 2.5 2.5 2.5 0 0 1-2.5-2.5v-.02m9.45-3.3a2.5 2.5 0 0 1 2.5-2.5 2.5 2.5 0 0 1 2.5 2.5 2.5 2.5 0 0 1-2.5 2.5 2.5 2.5 0 0 1-2.5-2.5v-.03m9.45-3.3a2.5 2.5 0 0 1 2.5-2.5 2.5 2.5 0 0 1 2.5 2.5 2.5 2.5 0 0 1-2.5 2.5 2.5 2.5 0 0 1-2.5-2.5v-.04m9.45-3.3v-.02a2.5 2.5 0 0 1 2.5-2.5 2.5 2.5 0 0 1 2.5 2.5 2.5 2.5 0 0 1-2.5 2.5 2.5 2.5 0 0 1-2.5-2.5v-.02m9.46-3.3a2.5 2.5 0 0 1 2.5-2.5 2.5 2.5 0 0 1 2.5 2.5 2.5 2.5 0 0 1-2.5 2.5 2.5 2.5 0 0 1-2.5-2.5v-.04m9.46-3.28v-.02a2.5 2.5 0 0 1 2.5-2.5 2.5 2.5 0 0 1 2.5 2.5 2.5 2.5 0 0 1-2.5 2.5 2.5 2.5 0 0 1-2.5-2.5v-.03m9.45-3.3v-.02a2.5 2.5 0 0 1 2.5-2.5 2.5 2.5 0 0 1 2.5 2.5 2.5 2.5 0 0 1-2.5 2.5 2.5 2.5 0 0 1-2.5-2.5v-.02m9.47-3.3a2.5 2.5 0 0 1 2.5-2.5 2.5 2.5 0 0 1 2.5 2.5 2.5 2.5 0 0 1-2.5 2.5 2.5 2.5 0 0 1-2.5-2.5v-.04m9.45-3.28v-.02a2.5 2.5 0 0 1 2.5-2.5 2.5 2.5 0 0 1 2.5 2.5 2.5 2.5 0 0 1-2.5 2.5 2.5 2.5 0 0 1-2.5-2.5v-.03m9.45-3.3v-.02a2.5 2.5 0 0 1 2.5-2.5 2.5 2.5 0 0 1 2.5 2.5 2.5 2.5 0 0 1-2.5 2.5 2.5 2.5 0 0 1-2.5-2.5v-.02m9.46-3.3a2.5 2.5 0 0 1 2.5-2.5 2.5 2.5 0 0 1 2.5 2.5 2.5 2.5 0 0 1-2.5 2.5 2.5 2.5 0 0 1-2.5-2.5v-.04m9.45-3.28v-.02a2.5 2.5 0 0 1 2.5-2.5 2.5 2.5 0 0 1 2.5 2.5 2.5 2.5 0 0 1-2.5 2.5 2.5 2.5 0 0 1-2.5-2.5v-.03m9.45-3.3v-.02a2.5 2.5 0 0 1 2.5-2.5 2.5 2.5 0 0 1 2.5 2.5 2.5 2.5 0 0 1-2.5 2.5 2.5 2.5 0 0 1-2.5-2.5v-.02m9.46-3.3a2.5 2.5 0 0 1 2.5-2.5 2.5 2.5 0 0 1 2.5 2.5 2.5 2.5 0 0 1-2.5 2.5 2.5 2.5 0 0 1-2.5-2.5v-.04m9.44-3.28v-.03a2.5 2.5 0 0 1 2.5-2.5 2.5 2.5 0 0 1 2.5 2.5 2.5 2.5 0 0 1-2.5 2.5 2.5 2.5 0 0 1-2.5-2.5m9.45-3.3v-.02a2.5 2.5 0 0 1 2.5-2.5 2.5 2.5 0 0 1 2.5 2.5 2.5 2.5 0 0 1-2.5 2.5 2.5 2.5 0 0 1-2.5-2.5v-.02" fill="#6f7681"/><path d="M-9783.35 6019.58h-5.9l-.47-1.33 5.25-1.85zM-9465.74 5909.25l-5.25 1.85-1.1-3.18h5.9z" stroke="#6f7681" stroke-width=".05" fill="#6f7681"/><path d="M-9471.9 6009.47v-.02a2.5 2.5 0 0 1 2.5-2.5 2.5 2.5 0 0 1 2.5 2.5 2.5 2.5 0 0 1-2.5 2.5 2.5 2.5 0 0 1-2.5-2.5v-.03m0-9.85v-.02a2.5 2.5 0 0 1 2.5-2.5 2.5 2.5 0 0 1 2.5 2.5 2.5 2.5 0 0 1-2.5 2.5 2.5 2.5 0 0 1-2.5-2.5v-.03m0-9.85v-.03a2.5 2.5 0 0 1 2.5-2.5 2.5 2.5 0 0 1 2.5 2.5 2.5 2.5 0 0 1-2.5 2.5 2.5 2.5 0 0 1-2.5-2.5v-.02m0-9.86v-.02a2.5 2.5 0 0 1 2.5-2.5 2.5 2.5 0 0 1 2.5 2.5 2.5 2.5 0 0 1-2.5 2.5 2.5 2.5 0 0 1-2.5-2.5v-.03m0-9.84v-.02a2.5 2.5 0 0 1 2.5-2.5 2.5 2.5 0 0 1 2.5 2.5 2.5 2.5 0 0 1-2.5 2.5 2.5 2.5 0 0 1-2.5-2.5v-.03m0-9.84v-.03a2.5 2.5 0 0 1 2.5-2.5 2.5 2.5 0 0 1 2.5 2.5 2.5 2.5 0 0 1-2.5 2.5 2.5 2.5 0 0 1-2.5-2.5v-.02m0-9.85v-.02a2.5 2.5 0 0 1 2.5-2.5 2.5 2.5 0 0 1 2.5 2.5 2.5 2.5 0 0 1-2.5 2.5 2.5 2.5 0 0 1-2.5-2.5v-.03m0-9.85v-.02a2.5 2.5 0 0 1 2.5-2.5 2.5 2.5 0 0 1 2.5 2.5 2.5 2.5 0 0 1-2.5 2.5 2.5 2.5 0 0 1-2.5-2.5v-.03m0-9.85v-.03a2.5 2.5 0 0 1 2.5-2.5 2.5 2.5 0 0 1 2.5 2.5 2.5 2.5 0 0 1-2.5 2.5 2.5 2.5 0 0 1-2.5-2.5v-.02m0-9.86v-.02a2.5 2.5 0 0 1 2.5-2.5 2.5 2.5 0 0 1 2.5 2.5 2.5 2.5 0 0 1-2.5 2.5 2.5 2.5 0 0 1-2.5-2.5v-.03m0-9.86v-.02a2.5 2.5 0 0 1 2.5-2.5 2.5 2.5 0 0 1 2.5 2.5 2.5 2.5 0 0 1-2.5 2.5 2.5 2.5 0 0 1-2.5-2.5v-.03" fill="#6f7681"/><path d="M-9466.92 6012.1l-1.1-.1-1.38-.05-1.38.04-1.1.1v-2.72h4.96zM-9466.92 5910.48h-4.95v-2.56h4.95z" stroke="#6f7681" stroke-width=".05" fill="#6f7681"/><path d="M-9155.4 6018.78v-.02a2.5 2.5 0 0 1 2.5-2.5 2.5 2.5 0 0 1 2.5 2.5 2.5 2.5 0 0 1-2.5 2.5 2.5 2.5 0 0 1-2.5-2.5v-.03m-9.52-3.28v-.03a2.5 2.5 0 0 1 2.5-2.5 2.5 2.5 0 0 1 2.5 2.5 2.5 2.5 0 0 1-2.5 2.5 2.5 2.5 0 0 1-2.5-2.5v-.02m-9.52-3.28v-.03a2.5 2.5 0 0 1 2.5-2.5 2.5 2.5 0 0 1 2.5 2.5 2.5 2.5 0 0 1-2.5 2.5 2.5 2.5 0 0 1-2.5-2.5v-.04m-9.52-3.28v-.02a2.5 2.5 0 0 1 2.5-2.5 2.5 2.5 0 0 1 2.5 2.5 2.5 2.5 0 0 1-2.5 2.5 2.5 2.5 0 0 1-2.5-2.5v-.03m-9.52-3.28v-.03a2.5 2.5 0 0 1 2.5-2.5 2.5 2.5 0 0 1 2.5 2.5 2.5 2.5 0 0 1-2.5 2.5 2.5 2.5 0 0 1-2.5-2.5v-.02m-9.52-3.3a2.5 2.5 0 0 1 2.5-2.5 2.5 2.5 0 0 1 2.5 2.5 2.5 2.5 0 0 1-2.5 2.5 2.5 2.5 0 0 1-2.5-2.5v-.04m-9.5-3.28v-.02a2.5 2.5 0 0 1 2.5-2.5 2.5 2.5 0 0 1 2.5 2.5 2.5 2.5 0 0 1-2.5 2.5 2.5 2.5 0 0 1-2.5-2.5v-.03m-9.53-3.28v-.03a2.5 2.5 0 0 1 2.5-2.5 2.5 2.5 0 0 1 2.5 2.5 2.5 2.5 0 0 1-2.5 2.5 2.5 2.5 0 0 1-2.5-2.5v-.02m-9.52-3.3a2.5 2.5 0 0 1 2.5-2.5 2.5 2.5 0 0 1 2.5 2.5 2.5 2.5 0 0 1-2.5 2.5 2.5 2.5 0 0 1-2.5-2.5v-.04m-9.52-3.28v-.03a2.5 2.5 0 0 1 2.5-2.5 2.5 2.5 0 0 1 2.5 2.5 2.5 2.5 0 0 1-2.5 2.5 2.5 2.5 0 0 1-2.5-2.5v-.02m-9.52-3.28v-.03a2.5 2.5 0 0 1 2.5-2.5 2.5 2.5 0 0 1 2.5 2.5 2.5 2.5 0 0 1-2.5 2.5 2.5 2.5 0 0 1-2.5-2.5v-.02m-9.5-3.3a2.5 2.5 0 0 1 2.5-2.5 2.5 2.5 0 0 1 2.5 2.5 2.5 2.5 0 0 1-2.5 2.5 2.5 2.5 0 0 1-2.5-2.5v-.04m-9.53-3.28v-.03a2.5 2.5 0 0 1 2.5-2.5 2.5 2.5 0 0 1 2.5 2.5 2.5 2.5 0 0 1-2.5 2.5 2.5 2.5 0 0 1-2.5-2.5v-.02m-9.52-3.3a2.5 2.5 0 0 1 2.5-2.5 2.5 2.5 0 0 1 2.5 2.5 2.5 2.5 0 0 1-2.5 2.5 2.5 2.5 0 0 1-2.5-2.5v-.04m-9.52-3.3v-.02a2.5 2.5 0 0 1 2.5-2.5 2.5 2.5 0 0 1 2.5 2.5 2.5 2.5 0 0 1-2.5 2.5 2.5 2.5 0 0 1-2.5-2.5v-.02m-9.52-3.3a2.5 2.5 0 0 1 2.5-2.5 2.5 2.5 0 0 1 2.5 2.5 2.5 2.5 0 0 1-2.5 2.5 2.5 2.5 0 0 1-2.5-2.5v-.03m-9.5-3.3a2.5 2.5 0 0 1 2.5-2.5 2.5 2.5 0 0 1 2.5 2.5 2.5 2.5 0 0 1-2.5 2.5 2.5 2.5 0 0 1-2.5-2.5v-.04m-9.53-3.3v-.02a2.5 2.5 0 0 1 2.5-2.5 2.5 2.5 0 0 1 2.5 2.5 2.5 2.5 0 0 1-2.5 2.5 2.5 2.5 0 0 1-2.5-2.5v-.02m-9.52-3.3a2.5 2.5 0 0 1 2.5-2.5 2.5 2.5 0 0 1 2.5 2.5 2.5 2.5 0 0 1-2.5 2.5 2.5 2.5 0 0 1-2.5-2.5v-.04m-9.52-3.28v-.02a2.5 2.5 0 0 1 2.5-2.5 2.5 2.5 0 0 1 2.5 2.5 2.5 2.5 0 0 1-2.5 2.5 2.5 2.5 0 0 1-2.5-2.5v-.03m-9.5-3.3v-.02a2.5 2.5 0 0 1 2.5-2.5 2.5 2.5 0 0 1 2.5 2.5 2.5 2.5 0 0 1-2.5 2.5 2.5 2.5 0 0 1-2.5-2.5v-.02m-9.53-3.3a2.5 2.5 0 0 1 2.5-2.5 2.5 2.5 0 0 1 2.5 2.5 2.5 2.5 0 0 1-2.5 2.5 2.5 2.5 0 0 1-2.5-2.5v-.04m-9.52-3.28v-.03a2.5 2.5 0 0 1 2.5-2.5 2.5 2.5 0 0 1 2.5 2.5 2.5 2.5 0 0 1-2.5 2.5 2.5 2.5 0 0 1-2.5-2.5m-9.52-3.3v-.02a2.5 2.5 0 0 1 2.5-2.5 2.5 2.5 0 0 1 2.5 2.5 2.5 2.5 0 0 1-2.5 2.5 2.5 2.5 0 0 1-2.5-2.5v-.02m-9.52-3.3a2.5 2.5 0 0 1 2.5-2.5 2.5 2.5 0 0 1 2.5 2.5 2.5 2.5 0 0 1-2.5 2.5 2.5 2.5 0 0 1-2.5-2.5v-.04m-9.52-3.28v-.03a2.5 2.5 0 0 1 2.5-2.5 2.5 2.5 0 0 1 2.5 2.5 2.5 2.5 0 0 1-2.5 2.5 2.5 2.5 0 0 1-2.5-2.5m-9.52-3.3v-.02a2.5 2.5 0 0 1 2.5-2.5 2.5 2.5 0 0 1 2.5 2.5 2.5 2.5 0 0 1-2.5 2.5 2.5 2.5 0 0 1-2.5-2.5v-.03m-9.52-3.28v-.03a2.5 2.5 0 0 1 2.5-2.5 2.5 2.5 0 0 1 2.5 2.5 2.5 2.5 0 0 1-2.5 2.5 2.5 2.5 0 0 1-2.5-2.5v-.02m-9.52-3.28v-.03a2.5 2.5 0 0 1 2.5-2.5 2.5 2.5 0 0 1 2.5 2.5 2.5 2.5 0 0 1-2.5 2.5 2.5 2.5 0 0 1-2.5-2.5m-9.52-3.3v-.02a2.5 2.5 0 0 1 2.5-2.5 2.5 2.5 0 0 1 2.5 2.5 2.5 2.5 0 0 1-2.5 2.5 2.5 2.5 0 0 1-2.5-2.5v-.03m-9.52-3.28v-.03a2.5 2.5 0 0 1 2.5-2.5 2.5 2.5 0 0 1 2.5 2.5 2.5 2.5 0 0 1-2.5 2.5 2.5 2.5 0 0 1-2.5-2.5v-.02m-9.52-3.28v-.03a2.5 2.5 0 0 1 2.5-2.5 2.5 2.5 0 0 1 2.5 2.5 2.5 2.5 0 0 1-2.5 2.5 2.5 2.5 0 0 1-2.5-2.5m-9.52-3.3v-.02a2.5 2.5 0 0 1 2.5-2.5 2.5 2.5 0 0 1 2.5 2.5 2.5 2.5 0 0 1-2.5 2.5 2.5 2.5 0 0 1-2.5-2.5v-.03m-9.52-3.28v-.03a2.5 2.5 0 0 1 2.5-2.5 2.5 2.5 0 0 1 2.5 2.5 2.5 2.5 0 0 1-2.5 2.5 2.5 2.5 0 0 1-2.5-2.5v-.02" fill="#6f7681"/><path d="M-9153.58 6021.14l-.2-.07.2-.55zm6.7-2.9l-.48 1.34h-5.9l1.12-3.18zM-9467.8 5911.1l-5.25-1.84.48-1.34h5.9z" stroke="#6f7681" stroke-width=".05" fill="#6f7681"/><path d="M-10024.02 5965.58a6 6 0 0 1 6-6h228a6 6 0 0 1 6 6v48a6 6 0 0 1-6 6h-228a6 6 0 0 1-6-6z" fill="none"/><use xlink:href="#k" transform="matrix(1,0,0,1,-10024.0167086358,5959.583894966828) translate(53.322482638888886 36.78168402777778)"/><use xlink:href="#l" transform="matrix(1,0,0,1,-10024.0167086358,5959.583894966828) translate(93.32899305555554 36.78168402777778)"/><path d="M-9600 5723.36a6 6 0 0 1 6-6h228a6 6 0 0 1 6 6v28a6 6 0 0 1-6 6h-228a6 6 0 0 1-6-6z" fill="none"/><use xlink:href="#m" transform="matrix(1,0,0,1,-9600,5717.361266011265) translate(53.9892578125 27.45388454861111)"/><use xlink:href="#n" transform="matrix(1,0,0,1,-9600,5717.361266011265) translate(156.67263454861111 27.45388454861111)"/><defs><linearGradient gradientUnits="userSpaceOnUse" id="a" x1="-9867.79" y1="6019.58" x2="-9704.35" y2="6162.6"><stop offset="0%" stop-color="#00c2a8"/><stop offset="100%" stop-color="#008465"/></linearGradient><path d="M802-711c201 25 350 118 350 331C1152-95 921 0 634 0H162v-1349c401 9 908-74 908 327 0 184-111 275-268 311zm-224-69c174-2 300-51 300-218 0-163-124-198-302-198H353v416h225zM353-153c281-2 612 44 606-244-5-271-329-233-606-234v478" id="o"/><path d="M709-1193V0H519v-1193H76v-156h1076v156H709" id="p"/><path d="M839-1102c70 0 148 7 206 17v167c-112-18-268-36-363 15-129 69-208 203-208 395V0H294c-10-367 32-789-52-1082h171c21 75 41 161 48 250h5c67-152 152-270 373-270" id="q"/><path d="M617-1102c355 0 481 238 477 599H322c5 222 84 388 301 388 144 0 244-59 284-166l158 45C1002-72 854 20 623 20c-342 0-490-220-490-568 0-346 151-554 484-554zm291 461c-18-192-90-328-289-328-194 0-287 128-295 328h584" id="r"/><g id="b"><use transform="matrix(0.015190972222222224,0,0,0.015190972222222224,0,0)" xlink:href="#o"/><use transform="matrix(0.015190972222222224,0,0,0.015190972222222224,18.669704861111114,0)" xlink:href="#p"/><use transform="matrix(0.015190972222222224,0,0,0.015190972222222224,37.33940972222223,0)" xlink:href="#q"/><use transform="matrix(0.015190972222222224,0,0,0.015190972222222224,56.00911458333334,0)" xlink:href="#r"/><use transform="matrix(0.015190972222222224,0,0,0.015190972222222224,74.67881944444446,0)" xlink:href="#r"/></g><path d="M655-135c108 0 195-33 260-74v-336H622v-160h479v572C981-54 839 20 639 20c-388 0-526-306-526-701 0-406 129-689 529-689 261 0 392 137 461 331l-171 56c-47-131-122-231-288-231-281 0-330 245-330 533 0 179 28 314 84 407s142 139 257 139" id="s"/><path d="M202-1349h823v156H709v1037h316V0H202v-156h316v-1037H202v-156" id="t"/><path d="M912-211c-10-84-18-177-18-274v-864h172V0H836L316-1130c7 79 16 167 16 254V0H162v-1349h222" id="u"/><g id="c"><use transform="matrix(0.015190972222222224,0,0,0.015190972222222224,0,0)" xlink:href="#s"/><use transform="matrix(0.015190972222222224,0,0,0.015190972222222224,18.669704861111114,0)" xlink:href="#t"/><use transform="matrix(0.015190972222222224,0,0,0.015190972222222224,37.33940972222223,0)" xlink:href="#u"/></g><radialGradient gradientUnits="userSpaceOnUse" id="d" fx="-9496.58" fy="6085.98" cx="-9496.58" cy="6085.98" r="13.12"><stop offset="0%" stop-color="#e350dc" stop-opacity=".4"/><stop offset="60%" stop-color="#e24adb" stop-opacity=".6"/><stop offset="100%" stop-color="#df49d8"/></radialGradient><radialGradient gradientUnits="userSpaceOnUse" id="e" fx="-9433.76" fy="6125.96" cx="-9433.76" cy="6125.96" r="12.85"><stop offset="0%" stop-color="#4db2e6" stop-opacity=".4"/><stop offset="60%" stop-color="#47b0e5" stop-opacity=".6"/><stop offset="100%" stop-color="#46aee2"/></radialGradient><radialGradient gradientUnits="userSpaceOnUse" id="f" fx="-9439.76" fy="6085.98" cx="-9439.76" cy="6085.98" r="13.12"><stop offset="0%" stop-color="#7ee36b" stop-opacity=".4"/><stop offset="60%" stop-color="#7ae266" stop-opacity=".6"/><stop offset="100%" stop-color="#78df65"/></radialGradient><radialGradient gradientUnits="userSpaceOnUse" id="g" fx="-9469.4" fy="6137.75" cx="-9469.4" cy="6137.75" r="13.21"><stop offset="0%" stop-color="#e65555" stop-opacity=".4"/><stop offset="60%" stop-color="#e55050" stop-opacity=".6"/><stop offset="100%" stop-color="#e24f4f"/></radialGradient><radialGradient gradientUnits="userSpaceOnUse" id="h" fx="-9470.35" fy="6045.12" cx="-9470.35" cy="6045.12" r="17.9"><stop offset="0%" stop-color="#f0da62" stop-opacity=".4"/><stop offset="60%" stop-color="#efd95d" stop-opacity=".6"/><stop offset="100%" stop-color="#ecd65c"/></radialGradient><radialGradient gradientUnits="userSpaceOnUse" id="i" fx="-9503.09" fy="6125.96" cx="-9503.09" cy="6125.96" r="12.85"><stop offset="0%" stop-color="#4fc3a4" stop-opacity=".4"/><stop offset="60%" stop-color="#49c1a1" stop-opacity=".6"/><stop offset="100%" stop-color="#48bf9f"/></radialGradient><path d="M875 0v-623H353V0H162v-1349h191v566h522v-566h191V0H875" id="v"/><path d="M614-1226c-167 1-283 53-283 213 0 183 186 193 334 234 230 63 463 120 463 409 0 286-219 387-518 390C309 23 131-98 79-338l185-37c34 165 149 248 351 246 184-2 324-58 324-238 0-203-207-221-372-266-210-57-422-111-422-377 0-267 201-356 470-360 279-5 430 101 480 324l-188 33c-28-141-121-215-293-213" id="w"/><path d="M1018 0H810c-67-251-137-496-194-756C558-495 487-250 419 0H211L0-1349h189c48 393 110 772 142 1181 58-262 128-512 197-763h175c69 251 139 500 197 763 37-402 92-789 139-1181h189" id="x"/><g id="j"><use transform="matrix(0.015190972222222224,0,0,0.015190972222222224,0,0)" xlink:href="#v"/><use transform="matrix(0.015190972222222224,0,0,0.015190972222222224,18.669704861111114,0)" xlink:href="#u"/><use transform="matrix(0.015190972222222224,0,0,0.015190972222222224,37.33940972222223,0)" xlink:href="#w"/><use transform="matrix(0.015190972222222224,0,0,0.015190972222222224,56.00911458333334,0)" xlink:href="#x"/></g><path d="M496-1349c439 0 656 222 653 664C1146-265 969 0 556 0H135v-1349h361zm36 1121c245-7 319-187 320-457 1-273-91-439-361-436h-61v893h102" id="y"/><path d="M836-709c204 20 350 118 350 324C1186-112 992 0 719 0H137v-1349h525c258 3 443 87 443 339 0 176-107 269-269 301zM643-811c107 0 165-53 165-159 0-113-61-160-167-160H432v319h211zm46 592c128-1 201-59 200-191-1-128-80-183-207-183H432v374h257" id="z"/><g id="k"><use transform="matrix(0.010850694444444444,0,0,0.010850694444444444,0,0)" xlink:href="#y"/><use transform="matrix(0.010850694444444444,0,0,0.010850694444444444,13.335503472222221,0)" xlink:href="#z"/></g><path d="M157-1349h916v228H762v893h311V0H157v-228h311v-893H157v-228" id="A"/><path d="M768-1103c247 0 336 167 336 416V0H824v-619c-3-164-24-273-171-273-164 0-229 142-229 312V0H143c-4-359 9-736-8-1082h268c7 63 12 146 13 215h4c67-145 160-236 348-236" id="B"/><path d="M802-909c-3-189-2-383-2-575h281v1248c-1 83 4 168 8 236H817c-9-50-14-117-15-176h-4C735-49 651 20 482 20 191 20 97-238 97-539c0-243 66-432 221-519 50-28 108-42 175-42 162 2 253 78 309 191zm-70 658c91-113 93-462 2-584-46-61-145-100-224-53-96 56-119 190-120 349 0 123 17 214 52 275 46 82 130 115 222 74 25-12 46-33 68-61" id="C"/><path d="M1113-274C1038-96 884 20 626 20c-352 0-526-209-526-566 0-358 185-556 530-556 358 0 496 251 499 615H395c5 180 68 319 245 319 102 0 186-45 208-129zM857-663c-6-177-128-307-315-247-94 30-141 121-145 247h460" id="D"/><path d="M874 0L612-392 348 0H49l406-559-387-523h303l241 354 240-354h305L770-562 1179 0H874" id="E"/><path d="M622-916c-112 2-200 14-200 111 0 90 89 101 168 121 234 58 514 77 514 368C1104-4 751 54 434 5 267-21 161-112 121-270l247-37c24 111 113 145 252 141 114-3 226-12 226-124 0-101-103-113-192-134-225-54-490-76-490-351 0-247 201-328 458-328 245 0 413 88 457 292l-249 26c-16-98-92-133-208-131" id="F"/><g id="l"><use transform="matrix(0.010850694444444444,0,0,0.010850694444444444,0,0)" xlink:href="#A"/><use transform="matrix(0.010850694444444444,0,0,0.010850694444444444,13.335503472222221,0)" xlink:href="#B"/><use transform="matrix(0.010850694444444444,0,0,0.010850694444444444,26.671006944444443,0)" xlink:href="#C"/><use transform="matrix(0.010850694444444444,0,0,0.010850694444444444,40.006510416666664,0)" xlink:href="#D"/><use transform="matrix(0.010850694444444444,0,0,0.010850694444444444,53.342013888888886,0)" xlink:href="#E"/><use transform="matrix(0.010850694444444444,0,0,0.010850694444444444,66.67751736111111,0)" xlink:href="#D"/><use transform="matrix(0.010850694444444444,0,0,0.010850694444444444,80.01302083333334,0)" xlink:href="#F"/></g><path d="M1034 0L896-382H333L196 0H0l510-1349h217L1228 0h-194zM847-531c-77-225-157-447-231-674-69 231-154 451-232 674h463" id="G"/><path d="M528 20c-247 0-343-132-343-381v-721h180v686c-4 177 45 284 224 277 194-8 279-136 279-336v-627h181c3 360-6 732 6 1082H885c-4-54-7-126-8-185h-3C809-64 714 20 528 20" id="H"/><path d="M615-1102c343 0 484 203 482 560-1 347-147 562-488 562-336 0-475-219-479-562-4-349 156-560 485-560zm-8 989c240 0 301-180 301-429 0-245-55-427-290-427-236 0-299 181-299 427 0 243 61 429 288 429" id="I"/><path d="M1000-272c3 95 12 159 101 161 21 0 41-3 59-7V-6c-44 10-86 16-139 16-141 2-191-84-197-217h-6C748-76 648 20 446 20c-207 0-318-120-318-322 0-266 194-348 454-354l236-4c12-191-40-305-222-305-140 0-220 47-232 172l-188-17c33-204 181-292 423-292 255 0 401 118 401 364v466zm-683-27c0 109 63 184 175 182 166-3 259-96 306-217 24-65 20-120 20-200-232 7-501-28-501 235" id="J"/><g id="m"><use transform="matrix(0.01193576388888889,0,0,0.01193576388888889,0,0)" xlink:href="#G"/><use transform="matrix(0.01193576388888889,0,0,0.01193576388888889,14.669053819444446,0)" xlink:href="#H"/><use transform="matrix(0.01193576388888889,0,0,0.01193576388888889,29.338107638888893,0)" xlink:href="#q"/><use transform="matrix(0.01193576388888889,0,0,0.01193576388888889,44.00716145833334,0)" xlink:href="#I"/><use transform="matrix(0.01193576388888889,0,0,0.01193576388888889,58.676215277777786,0)" xlink:href="#q"/><use transform="matrix(0.01193576388888889,0,0,0.01193576388888889,73.34526909722223,0)" xlink:href="#J"/></g><path d="M473-1349c438-1 655 221 652 661C1122-268 945-8 532 0H162v-1349h311zm42 1193c308-4 416-205 418-532 2-330-131-509-459-505H353v1037h162" id="K"/><g id="n"><use transform="matrix(0.01193576388888889,0,0,0.01193576388888889,0,0)" xlink:href="#K"/><use transform="matrix(0.01193576388888889,0,0,0.01193576388888889,14.669053819444446,0)" xlink:href="#o"/></g></defs></g></svg>